<?xml version="1.0" encoding="utf-8"?>
<svg xmlns="http://www.w3.org/2000/svg" xmlns:xlink="http://www.w3.org/1999/xlink" width="150" height="100" viewBox="0 0 600 400">
<defs>
  <clipPath id="clip540">
    <rect x="0" y="0" width="600" height="400"/>
  </clipPath>
</defs>
<path clip-path="url(#clip540)" d="
M0 400 L600 400 L600 0 L0 0  Z
  " fill="#ffffff" fill-rule="evenodd" fill-opacity="1"/>
<defs>
  <clipPath id="clip541">
    <rect x="120" y="0" width="421" height="400"/>
  </clipPath>
</defs>
<path clip-path="url(#clip540)" d="
M66.7612 341.755 L436.577 341.755 L436.577 11.811 L66.7612 11.811  Z
  " fill="#ffffff" fill-rule="evenodd" fill-opacity="1"/>
<defs>
  <clipPath id="clip542">
    <rect x="66" y="11" width="371" height="331"/>
  </clipPath>
</defs>
<polyline clip-path="url(#clip542)" style="stroke:#000000; stroke-width:0.5; stroke-opacity:0.1; fill:none" points="
  129.767,341.755 129.767,11.811 
  "/>
<polyline clip-path="url(#clip542)" style="stroke:#000000; stroke-width:0.5; stroke-opacity:0.1; fill:none" points="
  251.669,341.755 251.669,11.811 
  "/>
<polyline clip-path="url(#clip542)" style="stroke:#000000; stroke-width:0.5; stroke-opacity:0.1; fill:none" points="
  373.571,341.755 373.571,11.811 
  "/>
<polyline clip-path="url(#clip540)" style="stroke:#000000; stroke-width:1; stroke-opacity:1; fill:none" points="
  66.7612,341.755 436.577,341.755 
  "/>
<polyline clip-path="url(#clip540)" style="stroke:#000000; stroke-width:1; stroke-opacity:1; fill:none" points="
  129.767,341.755 129.767,337.796 
  "/>
<polyline clip-path="url(#clip540)" style="stroke:#000000; stroke-width:1; stroke-opacity:1; fill:none" points="
  251.669,341.755 251.669,337.796 
  "/>
<polyline clip-path="url(#clip540)" style="stroke:#000000; stroke-width:1; stroke-opacity:1; fill:none" points="
  373.571,341.755 373.571,337.796 
  "/>
<path clip-path="url(#clip540)" d="M 0 0 M118.205 365.323 L122.024 365.323 L122.024 352.141 L117.869 352.974 L117.869 350.844 L122.001 350.011 L124.339 350.011 L124.339 365.323 L128.159 365.323 L128.159 367.291 L118.205 367.291 L118.205 365.323 Z" fill="#000000" fill-rule="evenodd" fill-opacity="1" /><path clip-path="url(#clip540)" d="M 0 0 M135.693 351.55 Q133.888 351.55 132.973 353.333 Q132.071 355.104 132.071 358.668 Q132.071 362.222 132.973 364.004 Q133.888 365.775 135.693 365.775 Q137.51 365.775 138.413 364.004 Q139.328 362.222 139.328 358.668 Q139.328 355.104 138.413 353.333 Q137.51 351.55 135.693 351.55 M135.693 349.698 Q138.598 349.698 140.126 352.002 Q141.665 354.293 141.665 358.668 Q141.665 363.032 140.126 365.335 Q138.598 367.627 135.693 367.627 Q132.788 367.627 131.249 365.335 Q129.721 363.032 129.721 358.668 Q129.721 354.293 131.249 352.002 Q132.788 349.698 135.693 349.698 Z" fill="#000000" fill-rule="evenodd" fill-opacity="1" /><path clip-path="url(#clip540)" d="M 0 0 M240.055 350.011 L249.233 350.011 L249.233 351.979 L242.196 351.979 L242.196 356.215 Q242.705 356.041 243.214 355.96 Q243.724 355.867 244.233 355.867 Q247.126 355.867 248.816 357.453 Q250.506 359.039 250.506 361.747 Q250.506 364.536 248.77 366.087 Q247.034 367.627 243.874 367.627 Q242.786 367.627 241.652 367.441 Q240.529 367.256 239.326 366.886 L239.326 364.536 Q240.367 365.103 241.478 365.381 Q242.589 365.659 243.828 365.659 Q245.83 365.659 246.999 364.606 Q248.168 363.553 248.168 361.747 Q248.168 359.941 246.999 358.888 Q245.83 357.835 243.828 357.835 Q242.89 357.835 241.953 358.043 Q241.027 358.252 240.055 358.691 L240.055 350.011 Z" fill="#000000" fill-rule="evenodd" fill-opacity="1" /><path clip-path="url(#clip540)" d="M 0 0 M258.041 351.55 Q256.235 351.55 255.321 353.333 Q254.418 355.104 254.418 358.668 Q254.418 362.222 255.321 364.004 Q256.235 365.775 258.041 365.775 Q259.858 365.775 260.761 364.004 Q261.675 362.222 261.675 358.668 Q261.675 355.104 260.761 353.333 Q259.858 351.55 258.041 351.55 M258.041 349.698 Q260.946 349.698 262.474 352.002 Q264.013 354.293 264.013 358.668 Q264.013 363.032 262.474 365.335 Q260.946 367.627 258.041 367.627 Q255.136 367.627 253.596 365.335 Q252.069 363.032 252.069 358.668 Q252.069 354.293 253.596 352.002 Q255.136 349.698 258.041 349.698 Z" fill="#000000" fill-rule="evenodd" fill-opacity="1" /><path clip-path="url(#clip540)" d="M 0 0 M355.255 365.323 L359.075 365.323 L359.075 352.141 L354.919 352.974 L354.919 350.844 L359.051 350.011 L361.389 350.011 L361.389 365.323 L365.209 365.323 L365.209 367.291 L355.255 367.291 L355.255 365.323 Z" fill="#000000" fill-rule="evenodd" fill-opacity="1" /><path clip-path="url(#clip540)" d="M 0 0 M372.743 351.55 Q370.938 351.55 370.024 353.333 Q369.121 355.104 369.121 358.668 Q369.121 362.222 370.024 364.004 Q370.938 365.775 372.743 365.775 Q374.561 365.775 375.463 364.004 Q376.378 362.222 376.378 358.668 Q376.378 355.104 375.463 353.333 Q374.561 351.55 372.743 351.55 M372.743 349.698 Q375.649 349.698 377.176 352.002 Q378.716 354.293 378.716 358.668 Q378.716 363.032 377.176 365.335 Q375.649 367.627 372.743 367.627 Q369.838 367.627 368.299 365.335 Q366.771 363.032 366.771 358.668 Q366.771 354.293 368.299 352.002 Q369.838 349.698 372.743 349.698 Z" fill="#000000" fill-rule="evenodd" fill-opacity="1" /><path clip-path="url(#clip540)" d="M 0 0 M386.25 351.55 Q384.445 351.55 383.53 353.333 Q382.628 355.104 382.628 358.668 Q382.628 362.222 383.53 364.004 Q384.445 365.775 386.25 365.775 Q388.067 365.775 388.97 364.004 Q389.885 362.222 389.885 358.668 Q389.885 355.104 388.97 353.333 Q388.067 351.55 386.25 351.55 M386.25 349.698 Q389.155 349.698 390.683 352.002 Q392.223 354.293 392.223 358.668 Q392.223 363.032 390.683 365.335 Q389.155 367.627 386.25 367.627 Q383.345 367.627 381.806 365.335 Q380.278 363.032 380.278 358.668 Q380.278 354.293 381.806 352.002 Q383.345 349.698 386.25 349.698 Z" fill="#000000" fill-rule="evenodd" fill-opacity="1" /><path clip-path="url(#clip540)" d="M 0 0 M172.312 389.807 Q171.305 389.807 170.726 390.663 Q170.159 391.52 170.159 393.048 Q170.159 394.552 170.726 395.42 Q171.305 396.277 172.312 396.277 Q173.296 396.277 173.863 395.42 Q174.442 394.552 174.442 393.048 Q174.442 391.531 173.863 390.675 Q173.296 389.807 172.312 389.807 M172.312 388.337 Q174.141 388.337 175.217 389.61 Q176.293 390.883 176.293 393.048 Q176.293 395.212 175.205 396.485 Q174.129 397.747 172.312 397.747 Q170.46 397.747 169.384 396.485 Q168.307 395.212 168.307 393.048 Q168.307 390.872 169.384 389.61 Q170.472 388.337 172.312 388.337 M160.368 381.288 Q159.372 381.288 158.794 382.156 Q158.226 383.013 158.226 384.518 Q158.226 386.045 158.794 386.902 Q159.361 387.758 160.368 387.758 Q161.375 387.758 161.942 386.902 Q162.52 386.045 162.52 384.518 Q162.52 383.024 161.942 382.156 Q161.363 381.288 160.368 381.288 M170.819 379.818 L172.671 379.818 L161.861 397.747 L160.009 397.747 L170.819 379.818 M160.368 379.818 Q162.196 379.818 163.284 381.092 Q164.372 382.353 164.372 384.518 Q164.372 386.705 163.284 387.967 Q162.208 389.228 160.368 389.228 Q158.527 389.228 157.451 387.967 Q156.386 386.693 156.386 384.518 Q156.386 382.365 157.463 381.092 Q158.539 379.818 160.368 379.818 Z" fill="#000000" fill-rule="evenodd" fill-opacity="1" /><path clip-path="url(#clip540)" d="M 0 0 M191.085 385.941 Q189.372 385.941 188.377 387.284 Q187.381 388.615 187.381 390.941 Q187.381 393.267 188.365 394.61 Q189.361 395.941 191.085 395.941 Q192.786 395.941 193.782 394.598 Q194.777 393.256 194.777 390.941 Q194.777 388.638 193.782 387.295 Q192.786 385.941 191.085 385.941 M191.085 384.136 Q193.863 384.136 195.448 385.941 Q197.034 387.747 197.034 390.941 Q197.034 394.124 195.448 395.941 Q193.863 397.747 191.085 397.747 Q188.296 397.747 186.71 395.941 Q185.136 394.124 185.136 390.941 Q185.136 387.747 186.71 385.941 Q188.296 384.136 191.085 384.136 Z" fill="#000000" fill-rule="evenodd" fill-opacity="1" /><path clip-path="url(#clip540)" d="M 0 0 M205.83 379.402 L205.83 381.173 L203.793 381.173 Q202.647 381.173 202.196 381.636 Q201.756 382.099 201.756 383.302 L201.756 384.448 L205.263 384.448 L205.263 386.103 L201.756 386.103 L201.756 397.411 L199.615 397.411 L199.615 386.103 L197.578 386.103 L197.578 384.448 L199.615 384.448 L199.615 383.545 Q199.615 381.381 200.622 380.397 Q201.629 379.402 203.816 379.402 L205.83 379.402 Z" fill="#000000" fill-rule="evenodd" fill-opacity="1" /><path clip-path="url(#clip540)" d="M 0 0 M217.659 395.467 L217.659 402.341 L215.518 402.341 L215.518 384.448 L217.659 384.448 L217.659 386.416 Q218.33 385.258 219.349 384.703 Q220.379 384.136 221.802 384.136 Q224.164 384.136 225.633 386.011 Q227.115 387.886 227.115 390.941 Q227.115 393.997 225.633 395.872 Q224.164 397.747 221.802 397.747 Q220.379 397.747 219.349 397.191 Q218.33 396.624 217.659 395.467 M224.904 390.941 Q224.904 388.592 223.932 387.261 Q222.971 385.918 221.282 385.918 Q219.592 385.918 218.62 387.261 Q217.659 388.592 217.659 390.941 Q217.659 393.291 218.62 394.633 Q219.592 395.964 221.282 395.964 Q222.971 395.964 223.932 394.633 Q224.904 393.291 224.904 390.941 Z" fill="#000000" fill-rule="evenodd" fill-opacity="1" /><path clip-path="url(#clip540)" d="M 0 0 M240.437 390.397 L240.437 391.439 L230.645 391.439 Q230.784 393.638 231.964 394.795 Q233.157 395.941 235.275 395.941 Q236.501 395.941 237.647 395.64 Q238.805 395.339 239.939 394.737 L239.939 396.751 Q238.793 397.237 237.589 397.492 Q236.386 397.747 235.147 397.747 Q232.045 397.747 230.228 395.941 Q228.423 394.136 228.423 391.057 Q228.423 387.874 230.136 386.011 Q231.86 384.136 234.777 384.136 Q237.393 384.136 238.909 385.825 Q240.437 387.504 240.437 390.397 M238.307 389.772 Q238.284 388.024 237.323 386.983 Q236.374 385.941 234.8 385.941 Q233.018 385.941 231.941 386.948 Q230.876 387.955 230.714 389.784 L238.307 389.772 Z" fill="#000000" fill-rule="evenodd" fill-opacity="1" /><path clip-path="url(#clip540)" d="M 0 0 M250.182 386.439 Q249.823 386.23 249.395 386.138 Q248.978 386.034 248.469 386.034 Q246.663 386.034 245.691 387.214 Q244.731 388.383 244.731 390.582 L244.731 397.411 L242.589 397.411 L242.589 384.448 L244.731 384.448 L244.731 386.462 Q245.402 385.281 246.478 384.714 Q247.555 384.136 249.094 384.136 Q249.314 384.136 249.58 384.17 Q249.846 384.193 250.17 384.251 L250.182 386.439 Z" fill="#000000" fill-rule="evenodd" fill-opacity="1" /><path clip-path="url(#clip540)" d="M 0 0 M254.522 380.768 L254.522 384.448 L258.909 384.448 L258.909 386.103 L254.522 386.103 L254.522 393.14 Q254.522 394.726 254.95 395.177 Q255.39 395.629 256.721 395.629 L258.909 395.629 L258.909 397.411 L256.721 397.411 Q254.256 397.411 253.318 396.497 Q252.381 395.571 252.381 393.14 L252.381 386.103 L250.819 386.103 L250.819 384.448 L252.381 384.448 L252.381 380.768 L254.522 380.768 Z" fill="#000000" fill-rule="evenodd" fill-opacity="1" /><path clip-path="url(#clip540)" d="M 0 0 M260.923 392.295 L260.923 384.448 L263.052 384.448 L263.052 392.214 Q263.052 394.054 263.77 394.98 Q264.487 395.895 265.923 395.895 Q267.647 395.895 268.642 394.795 Q269.649 393.696 269.649 391.798 L269.649 384.448 L271.779 384.448 L271.779 397.411 L269.649 397.411 L269.649 395.42 Q268.874 396.601 267.844 397.179 Q266.825 397.747 265.471 397.747 Q263.237 397.747 262.08 396.358 Q260.923 394.969 260.923 392.295 M266.281 384.136 L266.281 384.136 Z" fill="#000000" fill-rule="evenodd" fill-opacity="1" /><path clip-path="url(#clip540)" d="M 0 0 M281.524 386.439 Q281.166 386.23 280.737 386.138 Q280.321 386.034 279.811 386.034 Q278.006 386.034 277.034 387.214 Q276.073 388.383 276.073 390.582 L276.073 397.411 L273.932 397.411 L273.932 384.448 L276.073 384.448 L276.073 386.462 Q276.744 385.281 277.821 384.714 Q278.897 384.136 280.436 384.136 Q280.656 384.136 280.923 384.17 Q281.189 384.193 281.513 384.251 L281.524 386.439 Z" fill="#000000" fill-rule="evenodd" fill-opacity="1" /><path clip-path="url(#clip540)" d="M 0 0 M293.064 390.941 Q293.064 388.592 292.091 387.261 Q291.131 385.918 289.441 385.918 Q287.751 385.918 286.779 387.261 Q285.818 388.592 285.818 390.941 Q285.818 393.291 286.779 394.633 Q287.751 395.964 289.441 395.964 Q291.131 395.964 292.091 394.633 Q293.064 393.291 293.064 390.941 M285.818 386.416 Q286.49 385.258 287.508 384.703 Q288.538 384.136 289.962 384.136 Q292.323 384.136 293.793 386.011 Q295.274 387.886 295.274 390.941 Q295.274 393.997 293.793 395.872 Q292.323 397.747 289.962 397.747 Q288.538 397.747 287.508 397.191 Q286.49 396.624 285.818 395.467 L285.818 397.411 L283.677 397.411 L283.677 379.402 L285.818 379.402 L285.818 386.416 Z" fill="#000000" fill-rule="evenodd" fill-opacity="1" /><path clip-path="url(#clip540)" d="M 0 0 M303.399 390.895 Q300.818 390.895 299.823 391.485 Q298.828 392.075 298.828 393.499 Q298.828 394.633 299.568 395.304 Q300.321 395.964 301.605 395.964 Q303.376 395.964 304.441 394.714 Q305.517 393.453 305.517 391.369 L305.517 390.895 L303.399 390.895 M307.647 390.015 L307.647 397.411 L305.517 397.411 L305.517 395.443 Q304.788 396.624 303.7 397.191 Q302.612 397.747 301.038 397.747 Q299.047 397.747 297.867 396.636 Q296.698 395.513 296.698 393.638 Q296.698 391.45 298.156 390.339 Q299.626 389.228 302.531 389.228 L305.517 389.228 L305.517 389.02 Q305.517 387.55 304.545 386.751 Q303.584 385.941 301.837 385.941 Q300.726 385.941 299.672 386.207 Q298.619 386.474 297.647 387.006 L297.647 385.038 Q298.816 384.587 299.915 384.367 Q301.015 384.136 302.057 384.136 Q304.869 384.136 306.258 385.594 Q307.647 387.052 307.647 390.015 Z" fill="#000000" fill-rule="evenodd" fill-opacity="1" /><path clip-path="url(#clip540)" d="M 0 0 M311.987 380.768 L311.987 384.448 L316.374 384.448 L316.374 386.103 L311.987 386.103 L311.987 393.14 Q311.987 394.726 312.415 395.177 Q312.855 395.629 314.186 395.629 L316.374 395.629 L316.374 397.411 L314.186 397.411 Q311.721 397.411 310.783 396.497 Q309.846 395.571 309.846 393.14 L309.846 386.103 L308.283 386.103 L308.283 384.448 L309.846 384.448 L309.846 380.768 L311.987 380.768 Z" fill="#000000" fill-rule="evenodd" fill-opacity="1" /><path clip-path="url(#clip540)" d="M 0 0 M318.607 384.448 L320.737 384.448 L320.737 397.411 L318.607 397.411 L318.607 384.448 M318.607 379.402 L320.737 379.402 L320.737 382.099 L318.607 382.099 L318.607 379.402 Z" fill="#000000" fill-rule="evenodd" fill-opacity="1" /><path clip-path="url(#clip540)" d="M 0 0 M327.994 385.941 Q326.281 385.941 325.286 387.284 Q324.29 388.615 324.29 390.941 Q324.29 393.267 325.274 394.61 Q326.269 395.941 327.994 395.941 Q329.695 395.941 330.691 394.598 Q331.686 393.256 331.686 390.941 Q331.686 388.638 330.691 387.295 Q329.695 385.941 327.994 385.941 M327.994 384.136 Q330.772 384.136 332.357 385.941 Q333.943 387.747 333.943 390.941 Q333.943 394.124 332.357 395.941 Q330.772 397.747 327.994 397.747 Q325.205 397.747 323.619 395.941 Q322.045 394.124 322.045 390.941 Q322.045 387.747 323.619 385.941 Q325.205 384.136 327.994 384.136 Z" fill="#000000" fill-rule="evenodd" fill-opacity="1" /><path clip-path="url(#clip540)" d="M 0 0 M346.952 389.587 L346.952 397.411 L344.823 397.411 L344.823 389.656 Q344.823 387.816 344.105 386.902 Q343.387 385.987 341.952 385.987 Q340.228 385.987 339.232 387.087 Q338.237 388.186 338.237 390.085 L338.237 397.411 L336.096 397.411 L336.096 384.448 L338.237 384.448 L338.237 386.462 Q339.001 385.293 340.031 384.714 Q341.073 384.136 342.427 384.136 Q344.661 384.136 345.806 385.524 Q346.952 386.902 346.952 389.587 Z" fill="#000000" fill-rule="evenodd" fill-opacity="1" /><polyline clip-path="url(#clip542)" style="stroke:#000000; stroke-width:0.5; stroke-opacity:0.1; fill:none" points="
  66.7612,301.29 436.577,301.29 
  "/>
<polyline clip-path="url(#clip542)" style="stroke:#000000; stroke-width:0.5; stroke-opacity:0.1; fill:none" points="
  66.7612,270.163 436.577,270.163 
  "/>
<polyline clip-path="url(#clip542)" style="stroke:#000000; stroke-width:0.5; stroke-opacity:0.1; fill:none" points="
  66.7612,239.037 436.577,239.037 
  "/>
<polyline clip-path="url(#clip542)" style="stroke:#000000; stroke-width:0.5; stroke-opacity:0.1; fill:none" points="
  66.7612,207.91 436.577,207.91 
  "/>
<polyline clip-path="url(#clip542)" style="stroke:#000000; stroke-width:0.5; stroke-opacity:0.1; fill:none" points="
  66.7612,176.783 436.577,176.783 
  "/>
<polyline clip-path="url(#clip542)" style="stroke:#000000; stroke-width:0.5; stroke-opacity:0.1; fill:none" points="
  66.7612,145.656 436.577,145.656 
  "/>
<polyline clip-path="url(#clip542)" style="stroke:#000000; stroke-width:0.5; stroke-opacity:0.1; fill:none" points="
  66.7612,114.529 436.577,114.529 
  "/>
<polyline clip-path="url(#clip542)" style="stroke:#000000; stroke-width:0.5; stroke-opacity:0.1; fill:none" points="
  66.7612,83.4026 436.577,83.4026 
  "/>
<polyline clip-path="url(#clip542)" style="stroke:#000000; stroke-width:0.5; stroke-opacity:0.1; fill:none" points="
  66.7612,52.2758 436.577,52.2758 
  "/>
<polyline clip-path="url(#clip542)" style="stroke:#000000; stroke-width:0.5; stroke-opacity:0.1; fill:none" points="
  66.7612,21.1491 436.577,21.1491 
  "/>
<polyline clip-path="url(#clip540)" style="stroke:#000000; stroke-width:1; stroke-opacity:1; fill:none" points="
  66.7612,341.755 66.7612,11.811 
  "/>
<polyline clip-path="url(#clip540)" style="stroke:#000000; stroke-width:1; stroke-opacity:1; fill:none" points="
  66.7612,301.29 71.199,301.29 
  "/>
<polyline clip-path="url(#clip540)" style="stroke:#000000; stroke-width:1; stroke-opacity:1; fill:none" points="
  66.7612,270.163 71.199,270.163 
  "/>
<polyline clip-path="url(#clip540)" style="stroke:#000000; stroke-width:1; stroke-opacity:1; fill:none" points="
  66.7612,239.037 71.199,239.037 
  "/>
<polyline clip-path="url(#clip540)" style="stroke:#000000; stroke-width:1; stroke-opacity:1; fill:none" points="
  66.7612,207.91 71.199,207.91 
  "/>
<polyline clip-path="url(#clip540)" style="stroke:#000000; stroke-width:1; stroke-opacity:1; fill:none" points="
  66.7612,176.783 71.199,176.783 
  "/>
<polyline clip-path="url(#clip540)" style="stroke:#000000; stroke-width:1; stroke-opacity:1; fill:none" points="
  66.7612,145.656 71.199,145.656 
  "/>
<polyline clip-path="url(#clip540)" style="stroke:#000000; stroke-width:1; stroke-opacity:1; fill:none" points="
  66.7612,114.529 71.199,114.529 
  "/>
<polyline clip-path="url(#clip540)" style="stroke:#000000; stroke-width:1; stroke-opacity:1; fill:none" points="
  66.7612,83.4026 71.199,83.4026 
  "/>
<polyline clip-path="url(#clip540)" style="stroke:#000000; stroke-width:1; stroke-opacity:1; fill:none" points="
  66.7612,52.2758 71.199,52.2758 
  "/>
<polyline clip-path="url(#clip540)" style="stroke:#000000; stroke-width:1; stroke-opacity:1; fill:none" points="
  66.7612,21.1491 71.199,21.1491 
  "/>
<path clip-path="url(#clip540)" d="M 0 0 M47.8076 307.963 L51.627 307.963 L51.627 294.78 L47.4719 295.613 L47.4719 293.483 L51.6038 292.65 L53.9418 292.65 L53.9418 307.963 L57.7612 307.963 L57.7612 309.93 L47.8076 309.93 L47.8076 307.963 Z" fill="#000000" fill-rule="evenodd" fill-opacity="1" /><path clip-path="url(#clip540)" d="M 0 0 M49.6015 276.836 L57.7612 276.836 L57.7612 278.803 L46.789 278.803 L46.789 276.836 Q48.1201 275.458 50.4117 273.144 Q52.7149 270.817 53.3052 270.146 Q54.4279 268.884 54.8677 268.016 Q55.3191 267.137 55.3191 266.292 Q55.3191 264.915 54.3469 264.046 Q53.3862 263.178 51.8353 263.178 Q50.7358 263.178 49.5089 263.56 Q48.2937 263.942 46.9048 264.718 L46.9048 262.357 Q48.3168 261.79 49.5437 261.5 Q50.7705 261.211 51.789 261.211 Q54.4742 261.211 56.0714 262.553 Q57.6686 263.896 57.6686 266.141 Q57.6686 267.206 57.2635 268.167 Q56.87 269.116 55.8168 270.412 Q55.5274 270.748 53.9765 272.357 Q52.4256 273.954 49.6015 276.836 Z" fill="#000000" fill-rule="evenodd" fill-opacity="1" /><path clip-path="url(#clip540)" d="M 0 0 M54.1964 238.359 Q55.8746 238.718 56.8121 239.853 Q57.7612 240.987 57.7612 242.653 Q57.7612 245.211 56.002 246.612 Q54.2427 248.012 51.002 248.012 Q49.914 248.012 48.7566 247.792 Q47.6108 247.584 46.384 247.156 L46.384 244.899 Q47.3562 245.466 48.5136 245.755 Q49.671 246.045 50.9325 246.045 Q53.1316 246.045 54.2774 245.177 Q55.4348 244.309 55.4348 242.653 Q55.4348 241.126 54.3584 240.269 Q53.2936 239.401 51.3839 239.401 L49.37 239.401 L49.37 237.48 L51.4765 237.48 Q53.201 237.48 54.1154 236.797 Q55.0297 236.103 55.0297 234.806 Q55.0297 233.475 54.0807 232.769 Q53.1432 232.052 51.3839 232.052 Q50.4233 232.052 49.3238 232.26 Q48.2242 232.468 46.9048 232.908 L46.9048 230.825 Q48.2358 230.454 49.3932 230.269 Q50.5622 230.084 51.5923 230.084 Q54.2543 230.084 55.8052 231.299 Q57.3561 232.503 57.3561 234.563 Q57.3561 235.998 56.5344 236.994 Q55.7126 237.978 54.1964 238.359 Z" fill="#000000" fill-rule="evenodd" fill-opacity="1" /><path clip-path="url(#clip540)" d="M 0 0 M52.9696 201.307 L47.0668 210.531 L52.9696 210.531 L52.9696 201.307 M52.3561 199.27 L55.2959 199.27 L55.2959 210.531 L57.7612 210.531 L57.7612 212.476 L55.2959 212.476 L55.2959 216.55 L52.9696 216.55 L52.9696 212.476 L45.1687 212.476 L45.1687 210.219 L52.3561 199.27 Z" fill="#000000" fill-rule="evenodd" fill-opacity="1" /><path clip-path="url(#clip540)" d="M 0 0 M47.3099 168.143 L56.4881 168.143 L56.4881 170.111 L49.4511 170.111 L49.4511 174.347 Q49.9603 174.173 50.4696 174.092 Q50.9788 173.999 51.4881 173.999 Q54.3816 173.999 56.0714 175.585 Q57.7612 177.171 57.7612 179.879 Q57.7612 182.668 56.0251 184.219 Q54.289 185.759 51.1293 185.759 Q50.0413 185.759 48.9071 185.573 Q47.7844 185.388 46.5807 185.018 L46.5807 182.668 Q47.6224 183.236 48.7335 183.513 Q49.8446 183.791 51.083 183.791 Q53.0853 183.791 54.2543 182.738 Q55.4233 181.685 55.4233 179.879 Q55.4233 178.073 54.2543 177.02 Q53.0853 175.967 51.083 175.967 Q50.1455 175.967 49.208 176.175 Q48.2821 176.384 47.3099 176.824 L47.3099 168.143 Z" fill="#000000" fill-rule="evenodd" fill-opacity="1" /><path clip-path="url(#clip540)" d="M 0 0 M51.9974 144.724 Q50.4233 144.724 49.4974 145.801 Q48.583 146.877 48.583 148.752 Q48.583 150.616 49.4974 151.704 Q50.4233 152.78 51.9974 152.78 Q53.5714 152.78 54.4858 151.704 Q55.4117 150.616 55.4117 148.752 Q55.4117 146.877 54.4858 145.801 Q53.5714 144.724 51.9974 144.724 M56.6385 137.398 L56.6385 139.528 Q55.7589 139.111 54.8561 138.891 Q53.9649 138.671 53.0853 138.671 Q50.7705 138.671 49.5437 140.234 Q48.3284 141.796 48.1548 144.956 Q48.8376 143.949 49.8677 143.417 Q50.8978 142.873 52.1362 142.873 Q54.7404 142.873 56.245 144.458 Q57.7612 146.032 57.7612 148.752 Q57.7612 151.414 56.1871 153.023 Q54.6131 154.632 51.9974 154.632 Q48.9997 154.632 47.414 152.34 Q45.8284 150.037 45.8284 145.674 Q45.8284 141.576 47.7728 139.146 Q49.7173 136.704 52.9927 136.704 Q53.8723 136.704 54.7635 136.877 Q55.6663 137.051 56.6385 137.398 Z" fill="#000000" fill-rule="evenodd" fill-opacity="1" /><path clip-path="url(#clip540)" d="M 0 0 M46.6502 105.889 L57.7612 105.889 L57.7612 106.885 L51.4881 123.169 L49.046 123.169 L54.9487 107.857 L46.6502 107.857 L46.6502 105.889 Z" fill="#000000" fill-rule="evenodd" fill-opacity="1" /><path clip-path="url(#clip540)" d="M 0 0 M51.8353 83.8367 Q50.1687 83.8367 49.208 84.7279 Q48.2589 85.6191 48.2589 87.1815 Q48.2589 88.744 49.208 89.6352 Q50.1687 90.5264 51.8353 90.5264 Q53.502 90.5264 54.4626 89.6352 Q55.4233 88.7325 55.4233 87.1815 Q55.4233 85.6191 54.4626 84.7279 Q53.5135 83.8367 51.8353 83.8367 M49.4974 82.8413 Q47.9927 82.4709 47.1478 81.4408 Q46.3145 80.4108 46.3145 78.9293 Q46.3145 76.8575 47.7844 75.6538 Q49.2659 74.4501 51.8353 74.4501 Q54.4163 74.4501 55.8862 75.6538 Q57.3561 76.8575 57.3561 78.9293 Q57.3561 80.4108 56.5112 81.4408 Q55.6779 82.4709 54.1848 82.8413 Q55.8746 83.2348 56.8121 84.3806 Q57.7612 85.5265 57.7612 87.1815 Q57.7612 89.6931 56.2219 91.0357 Q54.6941 92.3783 51.8353 92.3783 Q48.9765 92.3783 47.4372 91.0357 Q45.9094 89.6931 45.9094 87.1815 Q45.9094 85.5265 46.8585 84.3806 Q47.8076 83.2348 49.4974 82.8413 M48.6409 79.1492 Q48.6409 80.4918 49.4742 81.2441 Q50.3191 81.9964 51.8353 81.9964 Q53.3399 81.9964 54.1848 81.2441 Q55.0413 80.4918 55.0413 79.1492 Q55.0413 77.8066 54.1848 77.0543 Q53.3399 76.302 51.8353 76.302 Q50.3191 76.302 49.4742 77.0543 Q48.6409 77.8066 48.6409 79.1492 Z" fill="#000000" fill-rule="evenodd" fill-opacity="1" /><path clip-path="url(#clip540)" d="M 0 0 M46.9511 60.5571 L46.9511 58.4274 Q47.8307 58.8441 48.7335 59.064 Q49.6363 59.2839 50.5043 59.2839 Q52.8191 59.2839 54.0344 57.733 Q55.2612 56.1705 55.4348 52.9992 Q54.7635 53.9946 53.7335 54.527 Q52.7034 55.0594 51.4534 55.0594 Q48.8608 55.0594 47.3446 53.4969 Q45.84 51.9228 45.84 49.2029 Q45.84 46.5409 47.414 44.9321 Q48.9881 43.3233 51.6038 43.3233 Q54.6015 43.3233 56.1756 45.6266 Q57.7612 47.9182 57.7612 52.2932 Q57.7612 56.3788 55.8168 58.8209 Q53.8839 61.2515 50.6085 61.2515 Q49.7288 61.2515 48.8261 61.0779 Q47.9233 60.9043 46.9511 60.5571 M51.6038 53.2307 Q53.1779 53.2307 54.0922 52.1543 Q55.0182 51.0779 55.0182 49.2029 Q55.0182 47.3395 54.0922 46.2631 Q53.1779 45.1752 51.6038 45.1752 Q50.0298 45.1752 49.1038 46.2631 Q48.1895 47.3395 48.1895 49.2029 Q48.1895 51.0779 49.1038 52.1543 Q50.0298 53.2307 51.6038 53.2307 Z" fill="#000000" fill-rule="evenodd" fill-opacity="1" /><path clip-path="url(#clip540)" d="M 0 0 M34.3007 27.8215 L38.1201 27.8215 L38.1201 14.6387 L33.965 15.472 L33.965 13.3424 L38.097 12.5091 L40.4349 12.5091 L40.4349 27.8215 L44.2543 27.8215 L44.2543 29.7891 L34.3007 29.7891 L34.3007 27.8215 Z" fill="#000000" fill-rule="evenodd" fill-opacity="1" /><path clip-path="url(#clip540)" d="M 0 0 M51.789 14.0484 Q49.9835 14.0484 49.0691 15.8308 Q48.1664 17.6016 48.1664 21.1664 Q48.1664 24.7196 49.0691 26.502 Q49.9835 28.2729 51.789 28.2729 Q53.6061 28.2729 54.5089 26.502 Q55.4233 24.7196 55.4233 21.1664 Q55.4233 17.6016 54.5089 15.8308 Q53.6061 14.0484 51.789 14.0484 M51.789 12.1966 Q54.6941 12.1966 56.2219 14.4998 Q57.7612 16.7914 57.7612 21.1664 Q57.7612 25.5298 56.2219 27.8331 Q54.6941 30.1247 51.789 30.1247 Q48.8839 30.1247 47.3446 27.8331 Q45.8168 25.5298 45.8168 21.1664 Q45.8168 16.7914 47.3446 14.4998 Q48.8839 12.1966 51.789 12.1966 Z" fill="#000000" fill-rule="evenodd" fill-opacity="1" /><path clip-path="url(#clip540)" d="M 0 0 M11.6792 223.548 Q11.9339 222.795 12.7672 222.089 Q13.6005 221.372 15.0588 220.654 L19.781 218.282 L19.781 220.793 L15.3482 223.004 Q13.6121 223.86 13.045 224.67 Q12.4778 225.469 12.4778 226.858 L12.4778 229.404 L19.781 229.404 L19.781 231.742 L2.50104 231.742 L2.50104 226.464 Q2.50104 223.501 3.73946 222.043 Q4.97788 220.585 7.47786 220.585 Q9.1098 220.585 10.1862 221.349 Q11.2626 222.101 11.6792 223.548 M4.42233 229.404 L10.5566 229.404 L10.5566 226.464 Q10.5566 224.775 9.78109 223.918 Q8.99406 223.05 7.47786 223.05 Q5.96167 223.05 5.19778 223.918 Q4.42233 224.775 4.42233 226.464 L4.42233 229.404 Z" fill="#000000" fill-rule="evenodd" fill-opacity="1" /><path clip-path="url(#clip540)" d="M 0 0 M12.7672 206.025 L13.8088 206.025 L13.8088 215.816 Q16.0079 215.677 17.1653 214.497 Q18.3111 213.305 18.3111 211.187 Q18.3111 209.96 18.0102 208.814 Q17.7093 207.657 17.1074 206.522 L19.1213 206.522 Q19.6074 207.668 19.8621 208.872 Q20.1167 210.076 20.1167 211.314 Q20.1167 214.416 18.3111 216.233 Q16.5056 218.039 13.4269 218.039 Q10.2441 218.039 8.38064 216.326 Q6.50565 214.601 6.50565 211.684 Q6.50565 209.069 8.19545 207.553 Q9.87369 206.025 12.7672 206.025 M12.1422 208.154 Q10.3945 208.177 9.35285 209.138 Q8.31119 210.087 8.31119 211.661 Q8.31119 213.444 9.31813 214.52 Q10.3251 215.585 12.1538 215.747 L12.1422 208.154 Z" fill="#000000" fill-rule="evenodd" fill-opacity="1" /><path clip-path="url(#clip540)" d="M 0 0 M13.2649 197.9 Q13.2649 200.481 13.8551 201.476 Q14.4454 202.472 15.869 202.472 Q17.0033 202.472 17.6746 201.731 Q18.3343 200.978 18.3343 199.694 Q18.3343 197.923 17.0843 196.858 Q15.8227 195.782 13.7394 195.782 L13.2649 195.782 L13.2649 197.9 M12.3852 193.652 L19.781 193.652 L19.781 195.782 L17.8135 195.782 Q18.994 196.511 19.5611 197.599 Q20.1167 198.687 20.1167 200.261 Q20.1167 202.252 19.0056 203.432 Q17.8829 204.601 16.0079 204.601 Q13.8204 204.601 12.7093 203.143 Q11.5982 201.673 11.5982 198.768 L11.5982 195.782 L11.3899 195.782 Q9.91998 195.782 9.12137 196.754 Q8.31119 197.715 8.31119 199.462 Q8.31119 200.573 8.5774 201.627 Q8.8436 202.68 9.376 203.652 L7.40842 203.652 Q6.95703 202.483 6.73713 201.384 Q6.50565 200.284 6.50565 199.242 Q6.50565 196.43 7.96397 195.041 Q9.4223 193.652 12.3852 193.652 Z" fill="#000000" fill-rule="evenodd" fill-opacity="1" /><path clip-path="url(#clip540)" d="M 0 0 M1.77188 191.418 L1.77188 189.289 L19.781 189.289 L19.781 191.418 L1.77188 191.418 Z" fill="#000000" fill-rule="evenodd" fill-opacity="1" /><path clip-path="url(#clip540)" d="M 0 0 M6.81815 187.055 L6.81815 184.925 L19.781 184.925 L19.781 187.055 L6.81815 187.055 M1.77188 187.055 L1.77188 184.925 L4.46862 184.925 L4.46862 187.055 L1.77188 187.055 Z" fill="#000000" fill-rule="evenodd" fill-opacity="1" /><path clip-path="url(#clip540)" d="M 0 0 M6.81815 183.617 L6.81815 173.502 L8.76258 173.502 L18.0797 181.511 L18.0797 173.502 L19.781 173.502 L19.781 183.907 L17.8366 183.907 L8.51953 175.898 L8.51953 183.617 L6.81815 183.617 Z" fill="#000000" fill-rule="evenodd" fill-opacity="1" /><path clip-path="url(#clip540)" d="M 0 0 M13.2649 165.377 Q13.2649 167.958 13.8551 168.953 Q14.4454 169.949 15.869 169.949 Q17.0033 169.949 17.6746 169.208 Q18.3343 168.455 18.3343 167.171 Q18.3343 165.4 17.0843 164.335 Q15.8227 163.259 13.7394 163.259 L13.2649 163.259 L13.2649 165.377 M12.3852 161.129 L19.781 161.129 L19.781 163.259 L17.8135 163.259 Q18.994 163.988 19.5611 165.076 Q20.1167 166.164 20.1167 167.738 Q20.1167 169.729 19.0056 170.909 Q17.8829 172.078 16.0079 172.078 Q13.8204 172.078 12.7093 170.62 Q11.5982 169.15 11.5982 166.245 L11.5982 163.259 L11.3899 163.259 Q9.91998 163.259 9.12137 164.231 Q8.31119 165.192 8.31119 166.939 Q8.31119 168.05 8.5774 169.104 Q8.8436 170.157 9.376 171.129 L7.40842 171.129 Q6.95703 169.96 6.73713 168.861 Q6.50565 167.761 6.50565 166.719 Q6.50565 163.907 7.96397 162.518 Q9.4223 161.129 12.3852 161.129 Z" fill="#000000" fill-rule="evenodd" fill-opacity="1" /><path clip-path="url(#clip540)" d="M 0 0 M3.13761 156.789 L6.81815 156.789 L6.81815 152.402 L8.47323 152.402 L8.47323 156.789 L15.5102 156.789 Q17.0959 156.789 17.5473 156.361 Q17.9986 155.921 17.9986 154.59 L17.9986 152.402 L19.781 152.402 L19.781 154.59 Q19.781 157.055 18.8667 157.993 Q17.9408 158.93 15.5102 158.93 L8.47323 158.93 L8.47323 160.493 L6.81815 160.493 L6.81815 158.93 L3.13761 158.93 L3.13761 156.789 Z" fill="#000000" fill-rule="evenodd" fill-opacity="1" /><path clip-path="url(#clip540)" d="M 0 0 M6.81815 150.169 L6.81815 148.039 L19.781 148.039 L19.781 150.169 L6.81815 150.169 M1.77188 150.169 L1.77188 148.039 L4.46862 148.039 L4.46862 150.169 L1.77188 150.169 Z" fill="#000000" fill-rule="evenodd" fill-opacity="1" /><path clip-path="url(#clip540)" d="M 0 0 M8.31119 140.782 Q8.31119 142.495 9.65378 143.49 Q10.9848 144.486 13.3112 144.486 Q15.6375 144.486 16.9801 143.502 Q18.3111 142.507 18.3111 140.782 Q18.3111 139.081 16.9686 138.085 Q15.626 137.09 13.3112 137.09 Q11.0079 137.09 9.66535 138.085 Q8.31119 139.081 8.31119 140.782 M6.50565 140.782 Q6.50565 138.004 8.31119 136.419 Q10.1167 134.833 13.3112 134.833 Q16.494 134.833 18.3111 136.419 Q20.1167 138.004 20.1167 140.782 Q20.1167 143.571 18.3111 145.157 Q16.494 146.731 13.3112 146.731 Q10.1167 146.731 8.31119 145.157 Q6.50565 143.571 6.50565 140.782 Z" fill="#000000" fill-rule="evenodd" fill-opacity="1" /><path clip-path="url(#clip540)" d="M 0 0 M11.957 121.824 L19.781 121.824 L19.781 123.953 L12.0265 123.953 Q10.1862 123.953 9.27184 124.671 Q8.35749 125.389 8.35749 126.824 Q8.35749 128.548 9.45702 129.544 Q10.5566 130.539 12.4547 130.539 L19.781 130.539 L19.781 132.68 L6.81815 132.68 L6.81815 130.539 L8.83202 130.539 Q7.66305 129.775 7.08435 128.745 Q6.50565 127.703 6.50565 126.349 Q6.50565 124.115 7.89453 122.97 Q9.27184 121.824 11.957 121.824 Z" fill="#000000" fill-rule="evenodd" fill-opacity="1" /><path clip-path="url(#clip542)" d="
M87.1017 21.1491 L87.1017 21.1491 L172.433 21.1491 L172.433 21.1491 L87.1017 21.1491 L87.1017 21.1491  Z
  " fill="#009af9" fill-rule="evenodd" fill-opacity="1"/>
<polyline clip-path="url(#clip542)" style="stroke:#000000; stroke-width:1; stroke-opacity:1; fill:none" points="
  87.1017,21.1491 87.1017,21.1491 172.433,21.1491 87.1017,21.1491 
  "/>
<path clip-path="url(#clip542)" d="
M209.004 21.1491 L209.004 83.4026 L294.335 83.4026 L294.335 21.1491 L209.004 21.1491 L209.004 21.1491  Z
  " fill="#009af9" fill-rule="evenodd" fill-opacity="1"/>
<polyline clip-path="url(#clip542)" style="stroke:#000000; stroke-width:1; stroke-opacity:1; fill:none" points="
  209.004,21.1491 209.004,83.4026 294.335,83.4026 294.335,21.1491 209.004,21.1491 
  "/>
<path clip-path="url(#clip542)" d="
M330.905 21.1491 L330.905 145.656 L416.237 145.656 L416.237 21.1491 L330.905 21.1491 L330.905 21.1491  Z
  " fill="#009af9" fill-rule="evenodd" fill-opacity="1"/>
<polyline clip-path="url(#clip542)" style="stroke:#000000; stroke-width:1; stroke-opacity:1; fill:none" points="
  330.905,21.1491 330.905,145.656 416.237,145.656 416.237,21.1491 330.905,21.1491 
  "/>
<path clip-path="url(#clip542)" d="
M87.1017 21.1491 L87.1017 332.417 L172.433 332.417 L172.433 21.1491 L87.1017 21.1491 L87.1017 21.1491  Z
  " fill="#e26f46" fill-rule="evenodd" fill-opacity="1"/>
<polyline clip-path="url(#clip542)" style="stroke:#000000; stroke-width:1; stroke-opacity:1; fill:none" points="
  87.1017,21.1491 87.1017,332.417 172.433,332.417 172.433,21.1491 87.1017,21.1491 
  "/>
<path clip-path="url(#clip542)" d="
M209.004 83.4026 L209.004 332.417 L294.335 332.417 L294.335 83.4026 L209.004 83.4026 L209.004 83.4026  Z
  " fill="#e26f46" fill-rule="evenodd" fill-opacity="1"/>
<polyline clip-path="url(#clip542)" style="stroke:#000000; stroke-width:1; stroke-opacity:1; fill:none" points="
  209.004,83.4026 209.004,332.417 294.335,332.417 294.335,83.4026 209.004,83.4026 
  "/>
<path clip-path="url(#clip542)" d="
M330.905 145.656 L330.905 301.29 L416.237 301.29 L416.237 145.656 L330.905 145.656 L330.905 145.656  Z
  " fill="#e26f46" fill-rule="evenodd" fill-opacity="1"/>
<polyline clip-path="url(#clip542)" style="stroke:#000000; stroke-width:1; stroke-opacity:1; fill:none" points="
  330.905,145.656 330.905,301.29 416.237,301.29 416.237,145.656 330.905,145.656 
  "/>
<path clip-path="url(#clip542)" d="
M87.1017 332.417 L87.1017 332.417 L172.433 332.417 L172.433 332.417 L87.1017 332.417 L87.1017 332.417  Z
  " fill="#3da44d" fill-rule="evenodd" fill-opacity="1"/>
<polyline clip-path="url(#clip542)" style="stroke:#000000; stroke-width:1; stroke-opacity:1; fill:none" points="
  87.1017,332.417 87.1017,332.417 172.433,332.417 87.1017,332.417 
  "/>
<path clip-path="url(#clip542)" d="
M209.004 332.417 L209.004 332.417 L294.335 332.417 L294.335 332.417 L209.004 332.417 L209.004 332.417  Z
  " fill="#3da44d" fill-rule="evenodd" fill-opacity="1"/>
<polyline clip-path="url(#clip542)" style="stroke:#000000; stroke-width:1; stroke-opacity:1; fill:none" points="
  209.004,332.417 209.004,332.417 294.335,332.417 209.004,332.417 
  "/>
<path clip-path="url(#clip542)" d="
M330.905 301.29 L330.905 332.417 L416.237 332.417 L416.237 301.29 L330.905 301.29 L330.905 301.29  Z
  " fill="#3da44d" fill-rule="evenodd" fill-opacity="1"/>
<polyline clip-path="url(#clip542)" style="stroke:#000000; stroke-width:1; stroke-opacity:1; fill:none" points="
  330.905,301.29 330.905,332.417 416.237,332.417 416.237,301.29 330.905,301.29 
  "/>
<path clip-path="url(#clip540)" d="
M453.958 98.4092 L588.189 98.4092 L588.189 22.8092 L453.958 22.8092  Z
  " fill="#ffffff" fill-rule="evenodd" fill-opacity="1"/>
<polyline clip-path="url(#clip540)" style="stroke:#000000; stroke-width:1; stroke-opacity:1; fill:none" points="
  453.958,98.4092 588.189,98.4092 588.189,22.8092 453.958,22.8092 453.958,98.4092 
  "/>
<path clip-path="url(#clip540)" d="
M459.752 49.2692 L494.514 49.2692 L494.514 34.1492 L459.752 34.1492 L459.752 49.2692  Z
  " fill="#009af9" fill-rule="evenodd" fill-opacity="1"/>
<polyline clip-path="url(#clip540)" style="stroke:#000000; stroke-width:1; stroke-opacity:1; fill:none" points="
  459.752,49.2692 494.514,49.2692 494.514,34.1492 459.752,34.1492 459.752,49.2692 
  "/>
<path clip-path="url(#clip540)" d="M 0 0 M506.666 40.5626 Q507.165 39.6656 507.859 39.2388 Q508.554 38.812 509.494 38.812 Q510.76 38.812 511.447 39.7018 Q512.134 40.5843 512.134 42.2191 L512.134 47.1092 L510.796 47.1092 L510.796 42.2625 Q510.796 41.0979 510.384 40.5337 Q509.972 39.9694 509.125 39.9694 Q508.091 39.9694 507.49 40.6566 Q506.89 41.3439 506.89 42.5302 L506.89 47.1092 L505.552 47.1092 L505.552 42.2625 Q505.552 41.0907 505.139 40.5337 Q504.727 39.9694 503.866 39.9694 Q502.846 39.9694 502.246 40.6639 Q501.645 41.3511 501.645 42.5302 L501.645 47.1092 L500.307 47.1092 L500.307 39.0073 L501.645 39.0073 L501.645 40.266 Q502.101 39.5209 502.738 39.1665 Q503.374 38.812 504.25 38.812 Q505.132 38.812 505.747 39.2605 Q506.369 39.709 506.666 40.5626 Z" fill="#000000" fill-rule="evenodd" fill-opacity="1" /><path clip-path="url(#clip540)" d="M 0 0 M516.67 39.9405 Q515.599 39.9405 514.977 40.7796 Q514.355 41.6115 514.355 43.0655 Q514.355 44.5195 514.97 45.3586 Q515.592 46.1905 516.67 46.1905 Q517.733 46.1905 518.355 45.3514 Q518.978 44.5122 518.978 43.0655 Q518.978 41.626 518.355 40.7869 Q517.733 39.9405 516.67 39.9405 M516.67 38.812 Q518.406 38.812 519.397 39.9405 Q520.388 41.069 520.388 43.0655 Q520.388 45.0548 519.397 46.1905 Q518.406 47.3189 516.67 47.3189 Q514.927 47.3189 513.936 46.1905 Q512.952 45.0548 512.952 43.0655 Q512.952 41.069 513.936 39.9405 Q514.927 38.812 516.67 38.812 Z" fill="#000000" fill-rule="evenodd" fill-opacity="1" /><path clip-path="url(#clip540)" d="M 0 0 M528.519 42.2191 L528.519 47.1092 L527.188 47.1092 L527.188 42.2625 Q527.188 41.1124 526.739 40.5409 Q526.291 39.9694 525.394 39.9694 Q524.316 39.9694 523.694 40.6566 Q523.072 41.3439 523.072 42.5302 L523.072 47.1092 L521.734 47.1092 L521.734 39.0073 L523.072 39.0073 L523.072 40.266 Q523.549 39.5354 524.193 39.1737 Q524.844 38.812 525.691 38.812 Q527.087 38.812 527.803 39.6801 Q528.519 40.5409 528.519 42.2191 Z" fill="#000000" fill-rule="evenodd" fill-opacity="1" /><path clip-path="url(#clip540)" d="M 0 0 M533.054 39.9405 Q531.984 39.9405 531.362 40.7796 Q530.74 41.6115 530.74 43.0655 Q530.74 44.5195 531.355 45.3586 Q531.977 46.1905 533.054 46.1905 Q534.118 46.1905 534.74 45.3514 Q535.362 44.5122 535.362 43.0655 Q535.362 41.626 534.74 40.7869 Q534.118 39.9405 533.054 39.9405 M533.054 38.812 Q534.791 38.812 535.782 39.9405 Q536.773 41.069 536.773 43.0655 Q536.773 45.0548 535.782 46.1905 Q534.791 47.3189 533.054 47.3189 Q531.311 47.3189 530.32 46.1905 Q529.336 45.0548 529.336 43.0655 Q529.336 41.069 530.32 39.9405 Q531.311 38.812 533.054 38.812 Z" fill="#000000" fill-rule="evenodd" fill-opacity="1" /><path clip-path="url(#clip540)" d="M 0 0 M543.334 39.2461 L543.334 40.5047 Q542.769 40.2154 542.162 40.0707 Q541.554 39.926 540.903 39.926 Q539.912 39.926 539.413 40.2299 Q538.921 40.5337 538.921 41.1413 Q538.921 41.6043 539.276 41.8719 Q539.63 42.1323 540.701 42.371 L541.156 42.4723 Q542.574 42.7761 543.167 43.3331 Q543.768 43.8829 543.768 44.8739 Q543.768 46.0024 542.871 46.6607 Q541.981 47.3189 540.418 47.3189 Q539.767 47.3189 539.058 47.1887 Q538.357 47.0658 537.576 46.8126 L537.576 45.4382 Q538.313 45.8215 539.03 46.0169 Q539.746 46.2049 540.447 46.2049 Q541.388 46.2049 541.894 45.8866 Q542.4 45.5611 542.4 44.9752 Q542.4 44.4327 542.032 44.1433 Q541.67 43.854 540.433 43.5863 L539.97 43.4778 Q538.733 43.2174 538.183 42.6821 Q537.633 42.1396 537.633 41.1992 Q537.633 40.0562 538.444 39.4341 Q539.254 38.812 540.744 38.812 Q541.482 38.812 542.133 38.9205 Q542.784 39.029 543.334 39.2461 Z" fill="#000000" fill-rule="evenodd" fill-opacity="1" /><path clip-path="url(#clip540)" d="M 0 0 M546.48 36.707 L546.48 39.0073 L549.222 39.0073 L549.222 40.0418 L546.48 40.0418 L546.48 44.4399 Q546.48 45.4309 546.748 45.713 Q547.023 45.9952 547.855 45.9952 L549.222 45.9952 L549.222 47.1092 L547.855 47.1092 Q546.314 47.1092 545.728 46.5377 Q545.142 45.959 545.142 44.4399 L545.142 40.0418 L544.166 40.0418 L544.166 39.0073 L545.142 39.0073 L545.142 36.707 L546.48 36.707 Z" fill="#000000" fill-rule="evenodd" fill-opacity="1" /><path clip-path="url(#clip540)" d="M 0 0 M554.3 43.0365 Q552.687 43.0365 552.065 43.4055 Q551.443 43.7744 551.443 44.6641 Q551.443 45.3731 551.906 45.7926 Q552.376 46.2049 553.179 46.2049 Q554.286 46.2049 554.951 45.4237 Q555.624 44.6352 555.624 43.3331 L555.624 43.0365 L554.3 43.0365 M556.955 42.4868 L556.955 47.1092 L555.624 47.1092 L555.624 45.8794 Q555.168 46.6173 554.488 46.9717 Q553.808 47.3189 552.824 47.3189 Q551.58 47.3189 550.842 46.6245 Q550.112 45.9228 550.112 44.7509 Q550.112 43.3838 551.023 42.6893 Q551.942 41.9949 553.757 41.9949 L555.624 41.9949 L555.624 41.8647 Q555.624 40.946 555.016 40.4469 Q554.416 39.9405 553.323 39.9405 Q552.629 39.9405 551.971 40.1069 Q551.312 40.2733 550.705 40.606 L550.705 39.3763 Q551.435 39.0942 552.123 38.9567 Q552.81 38.812 553.461 38.812 Q555.219 38.812 556.087 39.7235 Q556.955 40.6349 556.955 42.4868 Z" fill="#000000" fill-rule="evenodd" fill-opacity="1" /><path clip-path="url(#clip540)" d="M 0 0 M564.167 43.0655 Q564.167 41.597 563.559 40.7651 Q562.959 39.926 561.903 39.926 Q560.847 39.926 560.239 40.7651 Q559.639 41.597 559.639 43.0655 Q559.639 44.5339 560.239 45.3731 Q560.847 46.2049 561.903 46.2049 Q562.959 46.2049 563.559 45.3731 Q564.167 44.5339 564.167 43.0655 M559.639 40.2371 Q560.058 39.5137 560.695 39.1665 Q561.338 38.812 562.228 38.812 Q563.704 38.812 564.623 39.9839 Q565.549 41.1558 565.549 43.0655 Q565.549 44.9752 564.623 46.1471 Q563.704 47.3189 562.228 47.3189 Q561.338 47.3189 560.695 46.9717 Q560.058 46.6173 559.639 45.8939 L559.639 47.1092 L558.3 47.1092 L558.3 35.8534 L559.639 35.8534 L559.639 40.2371 Z" fill="#000000" fill-rule="evenodd" fill-opacity="1" /><path clip-path="url(#clip540)" d="M 0 0 M566.945 35.8534 L568.276 35.8534 L568.276 47.1092 L566.945 47.1092 L566.945 35.8534 Z" fill="#000000" fill-rule="evenodd" fill-opacity="1" /><path clip-path="url(#clip540)" d="M 0 0 M576.602 42.7255 L576.602 43.3765 L570.482 43.3765 Q570.569 44.7509 571.307 45.4743 Q572.052 46.1905 573.375 46.1905 Q574.142 46.1905 574.858 46.0024 Q575.582 45.8143 576.291 45.4382 L576.291 46.6968 Q575.574 47.0006 574.822 47.1598 Q574.07 47.3189 573.296 47.3189 Q571.357 47.3189 570.222 46.1905 Q569.093 45.062 569.093 43.1378 Q569.093 41.1485 570.164 39.9839 Q571.241 38.812 573.064 38.812 Q574.699 38.812 575.647 39.8682 Q576.602 40.9171 576.602 42.7255 M575.271 42.3349 Q575.256 41.2426 574.656 40.5915 Q574.063 39.9405 573.079 39.9405 Q571.965 39.9405 571.292 40.5698 Q570.627 41.1992 570.525 42.3421 L575.271 42.3349 Z" fill="#000000" fill-rule="evenodd" fill-opacity="1" /><path clip-path="url(#clip540)" d="
M459.752 68.1692 L494.514 68.1692 L494.514 53.0492 L459.752 53.0492 L459.752 68.1692  Z
  " fill="#e26f46" fill-rule="evenodd" fill-opacity="1"/>
<polyline clip-path="url(#clip540)" style="stroke:#000000; stroke-width:1; stroke-opacity:1; fill:none" points="
  459.752,68.1692 494.514,68.1692 494.514,53.0492 459.752,53.0492 459.752,68.1692 
  "/>
<path clip-path="url(#clip540)" d="M 0 0 M506.174 61.9655 Q506.174 60.497 505.566 59.6651 Q504.966 58.826 503.91 58.826 Q502.854 58.826 502.246 59.6651 Q501.645 60.497 501.645 61.9655 Q501.645 63.4339 502.246 64.2731 Q502.854 65.1049 503.91 65.1049 Q504.966 65.1049 505.566 64.2731 Q506.174 63.4339 506.174 61.9655 M501.645 59.1371 Q502.065 58.4137 502.702 58.0665 Q503.345 57.712 504.235 57.712 Q505.711 57.712 506.63 58.8839 Q507.555 60.0558 507.555 61.9655 Q507.555 63.8752 506.63 65.0471 Q505.711 66.2189 504.235 66.2189 Q503.345 66.2189 502.702 65.8717 Q502.065 65.5173 501.645 64.7939 L501.645 66.0092 L500.307 66.0092 L500.307 54.7534 L501.645 54.7534 L501.645 59.1371 Z" fill="#000000" fill-rule="evenodd" fill-opacity="1" /><path clip-path="url(#clip540)" d="M 0 0 M508.952 57.9073 L510.283 57.9073 L510.283 66.0092 L508.952 66.0092 L508.952 57.9073 M508.952 54.7534 L510.283 54.7534 L510.283 56.4389 L508.952 56.4389 L508.952 54.7534 Z" fill="#000000" fill-rule="evenodd" fill-opacity="1" /><path clip-path="url(#clip540)" d="M 0 0 M516.844 58.1461 L516.844 59.4047 Q516.279 59.1154 515.672 58.9707 Q515.064 58.826 514.413 58.826 Q513.422 58.826 512.923 59.1299 Q512.431 59.4337 512.431 60.0413 Q512.431 60.5043 512.785 60.7719 Q513.14 61.0323 514.211 61.271 L514.666 61.3723 Q516.084 61.6761 516.677 62.2331 Q517.278 62.7829 517.278 63.7739 Q517.278 64.9024 516.381 65.5607 Q515.491 66.2189 513.928 66.2189 Q513.277 66.2189 512.568 66.0887 Q511.867 65.9658 511.086 65.7126 L511.086 64.3382 Q511.823 64.7215 512.54 64.9169 Q513.256 65.1049 513.957 65.1049 Q514.898 65.1049 515.404 64.7866 Q515.91 64.4611 515.91 63.8752 Q515.91 63.3327 515.542 63.0433 Q515.18 62.754 513.943 62.4863 L513.48 62.3778 Q512.243 62.1174 511.693 61.5821 Q511.143 61.0396 511.143 60.0992 Q511.143 58.9562 511.954 58.3341 Q512.764 57.712 514.254 57.712 Q514.992 57.712 515.643 57.8205 Q516.294 57.929 516.844 58.1461 Z" fill="#000000" fill-rule="evenodd" fill-opacity="1" /><path clip-path="url(#clip540)" d="M 0 0 M519.99 55.607 L519.99 57.9073 L522.732 57.9073 L522.732 58.9418 L519.99 58.9418 L519.99 63.3399 Q519.99 64.3309 520.258 64.613 Q520.533 64.8952 521.365 64.8952 L522.732 64.8952 L522.732 66.0092 L521.365 66.0092 Q519.824 66.0092 519.238 65.4377 Q518.652 64.859 518.652 63.3399 L518.652 58.9418 L517.676 58.9418 L517.676 57.9073 L518.652 57.9073 L518.652 55.607 L519.99 55.607 Z" fill="#000000" fill-rule="evenodd" fill-opacity="1" /><path clip-path="url(#clip540)" d="M 0 0 M527.81 61.9365 Q526.197 61.9365 525.575 62.3055 Q524.953 62.6744 524.953 63.5641 Q524.953 64.2731 525.416 64.6926 Q525.886 65.1049 526.689 65.1049 Q527.796 65.1049 528.461 64.3237 Q529.134 63.5352 529.134 62.2331 L529.134 61.9365 L527.81 61.9365 M530.465 61.3868 L530.465 66.0092 L529.134 66.0092 L529.134 64.7794 Q528.678 65.5173 527.998 65.8717 Q527.318 66.2189 526.334 66.2189 Q525.09 66.2189 524.352 65.5245 Q523.622 64.8228 523.622 63.6509 Q523.622 62.2838 524.533 61.5893 Q525.452 60.8949 527.267 60.8949 L529.134 60.8949 L529.134 60.7647 Q529.134 59.846 528.526 59.3469 Q527.926 58.8405 526.833 58.8405 Q526.139 58.8405 525.481 59.0069 Q524.822 59.1733 524.215 59.506 L524.215 58.2763 Q524.945 57.9942 525.633 57.8567 Q526.32 57.712 526.971 57.712 Q528.729 57.712 529.597 58.6235 Q530.465 59.5349 530.465 61.3868 Z" fill="#000000" fill-rule="evenodd" fill-opacity="1" /><path clip-path="url(#clip540)" d="M 0 0 M537.677 61.9655 Q537.677 60.497 537.069 59.6651 Q536.469 58.826 535.413 58.826 Q534.357 58.826 533.749 59.6651 Q533.149 60.497 533.149 61.9655 Q533.149 63.4339 533.749 64.2731 Q534.357 65.1049 535.413 65.1049 Q536.469 65.1049 537.069 64.2731 Q537.677 63.4339 537.677 61.9655 M533.149 59.1371 Q533.568 58.4137 534.205 58.0665 Q534.848 57.712 535.738 57.712 Q537.214 57.712 538.133 58.8839 Q539.058 60.0558 539.058 61.9655 Q539.058 63.8752 538.133 65.0471 Q537.214 66.2189 535.738 66.2189 Q534.848 66.2189 534.205 65.8717 Q533.568 65.5173 533.149 64.7939 L533.149 66.0092 L531.81 66.0092 L531.81 54.7534 L533.149 54.7534 L533.149 59.1371 Z" fill="#000000" fill-rule="evenodd" fill-opacity="1" /><path clip-path="url(#clip540)" d="M 0 0 M540.455 54.7534 L541.786 54.7534 L541.786 66.0092 L540.455 66.0092 L540.455 54.7534 Z" fill="#000000" fill-rule="evenodd" fill-opacity="1" /><path clip-path="url(#clip540)" d="M 0 0 M550.112 61.6255 L550.112 62.2765 L543.992 62.2765 Q544.079 63.6509 544.817 64.3743 Q545.562 65.0905 546.885 65.0905 Q547.652 65.0905 548.368 64.9024 Q549.092 64.7143 549.801 64.3382 L549.801 65.5968 Q549.084 65.9006 548.332 66.0598 Q547.58 66.2189 546.806 66.2189 Q544.867 66.2189 543.731 65.0905 Q542.603 63.962 542.603 62.0378 Q542.603 60.0485 543.674 58.8839 Q544.751 57.712 546.574 57.712 Q548.209 57.712 549.157 58.7682 Q550.112 59.8171 550.112 61.6255 M548.781 61.2349 Q548.766 60.1426 548.166 59.4915 Q547.573 58.8405 546.589 58.8405 Q545.475 58.8405 544.802 59.4698 Q544.137 60.0992 544.035 61.2421 L548.781 61.2349 Z" fill="#000000" fill-rule="evenodd" fill-opacity="1" /><path clip-path="url(#clip540)" d="
M459.752 87.0692 L494.514 87.0692 L494.514 71.9492 L459.752 71.9492 L459.752 87.0692  Z
  " fill="#3da44d" fill-rule="evenodd" fill-opacity="1"/>
<polyline clip-path="url(#clip540)" style="stroke:#000000; stroke-width:1; stroke-opacity:1; fill:none" points="
  459.752,87.0692 494.514,87.0692 494.514,71.9492 459.752,71.9492 459.752,87.0692 
  "/>
<path clip-path="url(#clip540)" d="M 0 0 M502.622 74.507 L502.622 76.8073 L505.364 76.8073 L505.364 77.8418 L502.622 77.8418 L502.622 82.2399 Q502.622 83.2309 502.89 83.513 Q503.165 83.7952 503.996 83.7952 L505.364 83.7952 L505.364 84.9092 L503.996 84.9092 Q502.456 84.9092 501.87 84.3377 Q501.284 83.759 501.284 82.2399 L501.284 77.8418 L500.307 77.8418 L500.307 76.8073 L501.284 76.8073 L501.284 74.507 L502.622 74.507 Z" fill="#000000" fill-rule="evenodd" fill-opacity="1" /><path clip-path="url(#clip540)" d="M 0 0 M511.454 78.0516 Q511.23 77.9213 510.963 77.8635 Q510.702 77.7984 510.384 77.7984 Q509.255 77.7984 508.648 78.5362 Q508.047 79.2668 508.047 80.6412 L508.047 84.9092 L506.709 84.9092 L506.709 76.8073 L508.047 76.8073 L508.047 78.066 Q508.467 77.3282 509.14 76.9737 Q509.812 76.612 510.774 76.612 Q510.912 76.612 511.078 76.6337 Q511.245 76.6482 511.447 76.6844 L511.454 78.0516 Z" fill="#000000" fill-rule="evenodd" fill-opacity="1" /><path clip-path="url(#clip540)" d="M 0 0 M512.851 76.8073 L514.182 76.8073 L514.182 84.9092 L512.851 84.9092 L512.851 76.8073 M512.851 73.6534 L514.182 73.6534 L514.182 75.3389 L512.851 75.3389 L512.851 73.6534 Z" fill="#000000" fill-rule="evenodd" fill-opacity="1" /><path clip-path="url(#clip540)" d="M 0 0 M520.743 77.0461 L520.743 78.3047 Q520.178 78.0154 519.571 77.8707 Q518.963 77.726 518.312 77.726 Q517.321 77.726 516.822 78.0299 Q516.33 78.3337 516.33 78.9413 Q516.33 79.4043 516.684 79.6719 Q517.039 79.9323 518.11 80.171 L518.565 80.2723 Q519.983 80.5761 520.576 81.1331 Q521.177 81.6829 521.177 82.6739 Q521.177 83.8024 520.28 84.4607 Q519.39 85.1189 517.827 85.1189 Q517.176 85.1189 516.467 84.9887 Q515.766 84.8658 514.985 84.6126 L514.985 83.2382 Q515.722 83.6215 516.439 83.8169 Q517.155 84.0049 517.856 84.0049 Q518.797 84.0049 519.303 83.6866 Q519.809 83.3611 519.809 82.7752 Q519.809 82.2327 519.441 81.9433 Q519.079 81.654 517.842 81.3863 L517.379 81.2778 Q516.142 81.0174 515.592 80.4821 Q515.042 79.9396 515.042 78.9992 Q515.042 77.8562 515.853 77.2341 Q516.663 76.612 518.153 76.612 Q518.891 76.612 519.542 76.7205 Q520.193 76.829 520.743 77.0461 Z" fill="#000000" fill-rule="evenodd" fill-opacity="1" /><path clip-path="url(#clip540)" d="M 0 0 M523.889 74.507 L523.889 76.8073 L526.631 76.8073 L526.631 77.8418 L523.889 77.8418 L523.889 82.2399 Q523.889 83.2309 524.157 83.513 Q524.432 83.7952 525.264 83.7952 L526.631 83.7952 L526.631 84.9092 L525.264 84.9092 Q523.723 84.9092 523.137 84.3377 Q522.551 83.759 522.551 82.2399 L522.551 77.8418 L521.574 77.8418 L521.574 76.8073 L522.551 76.8073 L522.551 74.507 L523.889 74.507 Z" fill="#000000" fill-rule="evenodd" fill-opacity="1" /><path clip-path="url(#clip540)" d="M 0 0 M531.709 80.8365 Q530.096 80.8365 529.474 81.2055 Q528.852 81.5744 528.852 82.4641 Q528.852 83.1731 529.315 83.5926 Q529.785 84.0049 530.588 84.0049 Q531.695 84.0049 532.36 83.2237 Q533.033 82.4352 533.033 81.1331 L533.033 80.8365 L531.709 80.8365 M534.364 80.2868 L534.364 84.9092 L533.033 84.9092 L533.033 83.6794 Q532.577 84.4173 531.897 84.7717 Q531.217 85.1189 530.233 85.1189 Q528.989 85.1189 528.251 84.4245 Q527.521 83.7228 527.521 82.5509 Q527.521 81.1838 528.432 80.4893 Q529.351 79.7949 531.166 79.7949 L533.033 79.7949 L533.033 79.6647 Q533.033 78.746 532.425 78.2469 Q531.825 77.7405 530.732 77.7405 Q530.038 77.7405 529.38 77.9069 Q528.721 78.0733 528.114 78.406 L528.114 77.1763 Q528.844 76.8942 529.532 76.7567 Q530.219 76.612 530.87 76.612 Q532.628 76.612 533.496 77.5235 Q534.364 78.4349 534.364 80.2868 Z" fill="#000000" fill-rule="evenodd" fill-opacity="1" /><path clip-path="url(#clip540)" d="M 0 0 M541.576 80.8655 Q541.576 79.397 540.968 78.5651 Q540.368 77.726 539.312 77.726 Q538.256 77.726 537.648 78.5651 Q537.048 79.397 537.048 80.8655 Q537.048 82.3339 537.648 83.1731 Q538.256 84.0049 539.312 84.0049 Q540.368 84.0049 540.968 83.1731 Q541.576 82.3339 541.576 80.8655 M537.048 78.0371 Q537.467 77.3137 538.104 76.9665 Q538.747 76.612 539.637 76.612 Q541.113 76.612 542.032 77.7839 Q542.957 78.9558 542.957 80.8655 Q542.957 82.7752 542.032 83.9471 Q541.113 85.1189 539.637 85.1189 Q538.747 85.1189 538.104 84.7717 Q537.467 84.4173 537.048 83.6939 L537.048 84.9092 L535.709 84.9092 L535.709 73.6534 L537.048 73.6534 L537.048 78.0371 Z" fill="#000000" fill-rule="evenodd" fill-opacity="1" /><path clip-path="url(#clip540)" d="M 0 0 M544.354 73.6534 L545.685 73.6534 L545.685 84.9092 L544.354 84.9092 L544.354 73.6534 Z" fill="#000000" fill-rule="evenodd" fill-opacity="1" /><path clip-path="url(#clip540)" d="M 0 0 M554.011 80.5255 L554.011 81.1765 L547.891 81.1765 Q547.978 82.5509 548.716 83.2743 Q549.461 83.9905 550.784 83.9905 Q551.551 83.9905 552.267 83.8024 Q552.991 83.6143 553.7 83.2382 L553.7 84.4968 Q552.983 84.8006 552.231 84.9598 Q551.479 85.1189 550.705 85.1189 Q548.766 85.1189 547.63 83.9905 Q546.502 82.862 546.502 80.9378 Q546.502 78.9485 547.573 77.7839 Q548.65 76.612 550.473 76.612 Q552.108 76.612 553.056 77.6682 Q554.011 78.7171 554.011 80.5255 M552.68 80.1349 Q552.665 79.0426 552.065 78.3915 Q551.472 77.7405 550.488 77.7405 Q549.374 77.7405 548.701 78.3698 Q548.036 78.9992 547.934 80.1421 L552.68 80.1349 Z" fill="#000000" fill-rule="evenodd" fill-opacity="1" /></svg>
