<?xml version="1.0" encoding="utf-8" standalone="no"?>
<!DOCTYPE svg PUBLIC "-//W3C//DTD SVG 1.1//EN"
  "http://www.w3.org/Graphics/SVG/1.1/DTD/svg11.dtd">
<!-- Created with matplotlib (https://matplotlib.org/) -->
<svg height="345.6pt" version="1.1" viewBox="0 0 460.8 345.6" width="460.8pt" xmlns="http://www.w3.org/2000/svg" xmlns:xlink="http://www.w3.org/1999/xlink">
 <metadata>
  <rdf:RDF xmlns:cc="http://creativecommons.org/ns#" xmlns:dc="http://purl.org/dc/elements/1.1/" xmlns:rdf="http://www.w3.org/1999/02/22-rdf-syntax-ns#">
   <cc:Work>
    <dc:type rdf:resource="http://purl.org/dc/dcmitype/StillImage"/>
    <dc:date>2021-08-17T15:35:27.168643</dc:date>
    <dc:format>image/svg+xml</dc:format>
    <dc:creator>
     <cc:Agent>
      <dc:title>Matplotlib v3.3.4, https://matplotlib.org/</dc:title>
     </cc:Agent>
    </dc:creator>
   </cc:Work>
  </rdf:RDF>
 </metadata>
 <defs>
  <style type="text/css">*{stroke-linecap:butt;stroke-linejoin:round;}</style>
 </defs>
 <g id="figure_1">
  <g id="patch_1">
   <path d="M 0 345.6 
L 460.8 345.6 
L 460.8 0 
L 0 0 
z
" style="fill:#ffffff;"/>
  </g>
  <g id="axes_1">
   <g id="patch_2">
    <path d="M 57.6 307.584 
L 414.72 307.584 
L 414.72 41.472 
L 57.6 41.472 
z
" style="fill:#ffffff;"/>
   </g>
   <g id="PathCollection_1">
    <defs>
     <path d="M 0 3.535534 
C 0.937635 3.535534 1.836992 3.163008 2.5 2.5 
C 3.163008 1.836992 3.535534 0.937635 3.535534 -0 
C 3.535534 -0.937635 3.163008 -1.836992 2.5 -2.5 
C 1.836992 -3.163008 0.937635 -3.535534 0 -3.535534 
C -0.937635 -3.535534 -1.836992 -3.163008 -2.5 -2.5 
C -3.163008 -1.836992 -3.535534 -0.937635 -3.535534 0 
C -3.535534 0.937635 -3.163008 1.836992 -2.5 2.5 
C -1.836992 3.163008 -0.937635 3.535534 0 3.535534 
z
" id="C0_0_609dd54017"/>
    </defs>
    <g clip-path="url(#pfdf9e2c53a)">
     <use style="fill:none;stroke:#1e90ff;" x="92.86197" xlink:href="#C0_0_609dd54017" y="143.400519"/>
    </g>
    <g clip-path="url(#pfdf9e2c53a)">
     <use style="fill:none;stroke:#1e90ff;" x="99.708166" xlink:href="#C0_0_609dd54017" y="157.644167"/>
    </g>
    <g clip-path="url(#pfdf9e2c53a)">
     <use style="fill:none;stroke:#1e90ff;" x="108.717007" xlink:href="#C0_0_609dd54017" y="164.123009"/>
    </g>
    <g clip-path="url(#pfdf9e2c53a)">
     <use style="fill:none;stroke:#1e90ff;" x="125.022837" xlink:href="#C0_0_609dd54017" y="174.701869"/>
    </g>
    <g clip-path="url(#pfdf9e2c53a)">
     <use style="fill:none;stroke:#1e90ff;" x="138.556916" xlink:href="#C0_0_609dd54017" y="181.061171"/>
    </g>
    <g clip-path="url(#pfdf9e2c53a)">
     <use style="fill:none;stroke:#1e90ff;" x="158.692178" xlink:href="#C0_0_609dd54017" y="185.749139"/>
    </g>
    <g clip-path="url(#pfdf9e2c53a)">
     <use style="fill:none;stroke:#1e90ff;" x="172.985724" xlink:href="#C0_0_609dd54017" y="183.920075"/>
    </g>
    <g clip-path="url(#pfdf9e2c53a)">
     <use style="fill:none;stroke:#1e90ff;" x="193.67928" xlink:href="#C0_0_609dd54017" y="176.774519"/>
    </g>
    <g clip-path="url(#pfdf9e2c53a)">
     <use style="fill:none;stroke:#1e90ff;" x="209.503065" xlink:href="#C0_0_609dd54017" y="172.076216"/>
    </g>
    <g clip-path="url(#pfdf9e2c53a)">
     <use style="fill:none;stroke:#1e90ff;" x="232.807151" xlink:href="#C0_0_609dd54017" y="166.60744"/>
    </g>
    <g clip-path="url(#pfdf9e2c53a)">
     <use style="fill:none;stroke:#1e90ff;" x="249.849464" xlink:href="#C0_0_609dd54017" y="163.243394"/>
    </g>
    <g clip-path="url(#pfdf9e2c53a)">
     <use style="fill:none;stroke:#1e90ff;" x="274.280845" xlink:href="#C0_0_609dd54017" y="158.942567"/>
    </g>
    <g clip-path="url(#pfdf9e2c53a)">
     <use style="fill:none;stroke:#1e90ff;" x="291.826199" xlink:href="#C0_0_609dd54017" y="156.092371"/>
    </g>
    <g clip-path="url(#pfdf9e2c53a)">
     <use style="fill:none;stroke:#1e90ff;" x="316.771107" xlink:href="#C0_0_609dd54017" y="152.254796"/>
    </g>
    <g clip-path="url(#pfdf9e2c53a)">
     <use style="fill:none;stroke:#1e90ff;" x="334.579445" xlink:href="#C0_0_609dd54017" y="149.620623"/>
    </g>
    <g clip-path="url(#pfdf9e2c53a)">
     <use style="fill:none;stroke:#1e90ff;" x="359.826559" xlink:href="#C0_0_609dd54017" y="145.989171"/>
    </g>
    <g clip-path="url(#pfdf9e2c53a)">
     <use style="fill:none;stroke:#1e90ff;" x="377.811624" xlink:href="#C0_0_609dd54017" y="143.457797"/>
    </g>
    <g clip-path="url(#pfdf9e2c53a)">
     <use style="fill:none;stroke:#1e90ff;" x="390.532117" xlink:href="#C0_0_609dd54017" y="141.690159"/>
    </g>
    <g clip-path="url(#pfdf9e2c53a)">
     <use style="fill:none;stroke:#1e90ff;" x="398.487273" xlink:href="#C0_0_609dd54017" y="140.593382"/>
    </g>
   </g>
   <g id="PathCollection_2">
    <defs>
     <path d="M 0 3.535534 
C 0.937635 3.535534 1.836992 3.163008 2.5 2.5 
C 3.163008 1.836992 3.535534 0.937635 3.535534 0 
C 3.535534 -0.937635 3.163008 -1.836992 2.5 -2.5 
C 1.836992 -3.163008 0.937635 -3.535534 0 -3.535534 
C -0.937635 -3.535534 -1.836992 -3.163008 -2.5 -2.5 
C -3.163008 -1.836992 -3.535534 -0.937635 -3.535534 0 
C -3.535534 0.937635 -3.163008 1.836992 -2.5 2.5 
C -1.836992 3.163008 -0.937635 3.535534 0 3.535534 
z
" id="md35949129a" style="stroke:#000000;"/>
    </defs>
    <g clip-path="url(#pfdf9e2c53a)">
     <use style="fill:#1e90ff;stroke:#000000;" x="234.520331" xlink:href="#md35949129a" y="54.014541"/>
     <use style="fill:#1e90ff;stroke:#000000;" x="218.081573" xlink:href="#md35949129a" y="54.398873"/>
     <use style="fill:#1e90ff;stroke:#000000;" x="197.661988" xlink:href="#md35949129a" y="55.141749"/>
     <use style="fill:#1e90ff;stroke:#000000;" x="177.482008" xlink:href="#md35949129a" y="56.278868"/>
     <use style="fill:#1e90ff;stroke:#000000;" x="157.740175" xlink:href="#md35949129a" y="57.94408"/>
     <use style="fill:#1e90ff;stroke:#000000;" x="138.868749" xlink:href="#md35949129a" y="60.233139"/>
     <use style="fill:#1e90ff;stroke:#000000;" x="121.931899" xlink:href="#md35949129a" y="62.84174"/>
     <use style="fill:#1e90ff;stroke:#000000;" x="108.190796" xlink:href="#md35949129a" y="67.255841"/>
     <use style="fill:#1e90ff;stroke:#000000;" x="95.770203" xlink:href="#md35949129a" y="86.70619"/>
     <use style="fill:#1e90ff;stroke:#000000;" x="91.786195" xlink:href="#md35949129a" y="108.497729"/>
    </g>
   </g>
   <g id="PathCollection_3">
    <g clip-path="url(#pfdf9e2c53a)">
     <use style="fill:#1e90ff;stroke:#000000;" x="234.520331" xlink:href="#md35949129a" y="54.014541"/>
     <use style="fill:#1e90ff;stroke:#000000;" x="251.016561" xlink:href="#md35949129a" y="53.769885"/>
     <use style="fill:#1e90ff;stroke:#000000;" x="271.688091" xlink:href="#md35949129a" y="53.610354"/>
     <use style="fill:#1e90ff;stroke:#000000;" x="292.397716" xlink:href="#md35949129a" y="53.568"/>
     <use style="fill:#1e90ff;stroke:#000000;" x="313.12871" xlink:href="#md35949129a" y="53.60681"/>
     <use style="fill:#1e90ff;stroke:#000000;" x="333.874309" xlink:href="#md35949129a" y="53.700641"/>
     <use style="fill:#1e90ff;stroke:#000000;" x="354.626755" xlink:href="#md35949129a" y="53.830592"/>
     <use style="fill:#1e90ff;stroke:#000000;" x="375.384837" xlink:href="#md35949129a" y="53.983106"/>
     <use style="fill:#1e90ff;stroke:#000000;" x="396.144315" xlink:href="#md35949129a" y="54.148481"/>
     <use style="fill:#1e90ff;stroke:#000000;" x="398.487273" xlink:href="#md35949129a" y="54.167628"/>
    </g>
   </g>
   <g id="PathCollection_4">
    <g clip-path="url(#pfdf9e2c53a)">
     <use style="fill:#1e90ff;stroke:#000000;" x="234.520331" xlink:href="#md35949129a" y="294.925409"/>
     <use style="fill:#1e90ff;stroke:#000000;" x="222.125745" xlink:href="#md35949129a" y="294.860134"/>
     <use style="fill:#1e90ff;stroke:#000000;" x="206.74682" xlink:href="#md35949129a" y="294.769138"/>
     <use style="fill:#1e90ff;stroke:#000000;" x="191.559893" xlink:href="#md35949129a" y="294.663768"/>
     <use style="fill:#1e90ff;stroke:#000000;" x="176.649628" xlink:href="#md35949129a" y="294.538047"/>
     <use style="fill:#1e90ff;stroke:#000000;" x="162.129526" xlink:href="#md35949129a" y="294.382974"/>
     <use style="fill:#1e90ff;stroke:#000000;" x="148.169937" xlink:href="#md35949129a" y="294.183879"/>
     <use style="fill:#1e90ff;stroke:#000000;" x="135.040472" xlink:href="#md35949129a" y="293.917587"/>
     <use style="fill:#1e90ff;stroke:#000000;" x="123.190483" xlink:href="#md35949129a" y="293.557728"/>
     <use style="fill:#1e90ff;stroke:#000000;" x="113.112393" xlink:href="#md35949129a" y="293.091298"/>
     <use style="fill:#1e90ff;stroke:#000000;" x="102.829114" xlink:href="#md35949129a" y="292.331025"/>
     <use style="fill:#1e90ff;stroke:#000000;" x="93.838875" xlink:href="#md35949129a" y="291.048366"/>
     <use style="fill:#1e90ff;stroke:#000000;" x="87.096584" xlink:href="#md35949129a" y="289.033371"/>
     <use style="fill:#1e90ff;stroke:#000000;" x="78.652025" xlink:href="#md35949129a" y="291.549644"/>
     <use style="fill:#1e90ff;stroke:#000000;" x="73.832727" xlink:href="#md35949129a" y="294.182687"/>
    </g>
   </g>
   <g id="PathCollection_5">
    <g clip-path="url(#pfdf9e2c53a)">
     <use style="fill:#1e90ff;stroke:#000000;" x="234.520331" xlink:href="#md35949129a" y="294.925409"/>
     <use style="fill:#1e90ff;stroke:#000000;" x="246.964236" xlink:href="#md35949129a" y="294.985626"/>
     <use style="fill:#1e90ff;stroke:#000000;" x="262.552966" xlink:href="#md35949129a" y="295.055289"/>
     <use style="fill:#1e90ff;stroke:#000000;" x="278.148167" xlink:href="#md35949129a" y="295.119825"/>
     <use style="fill:#1e90ff;stroke:#000000;" x="293.726565" xlink:href="#md35949129a" y="295.179889"/>
     <use style="fill:#1e90ff;stroke:#000000;" x="309.274711" xlink:href="#md35949129a" y="295.235832"/>
     <use style="fill:#1e90ff;stroke:#000000;" x="324.785083" xlink:href="#md35949129a" y="295.287859"/>
     <use style="fill:#1e90ff;stroke:#000000;" x="340.25533" xlink:href="#md35949129a" y="295.336132"/>
     <use style="fill:#1e90ff;stroke:#000000;" x="355.685232" xlink:href="#md35949129a" y="295.380815"/>
     <use style="fill:#1e90ff;stroke:#000000;" x="371.07692" xlink:href="#md35949129a" y="295.422094"/>
     <use style="fill:#1e90ff;stroke:#000000;" x="386.432706" xlink:href="#md35949129a" y="295.460167"/>
     <use style="fill:#1e90ff;stroke:#000000;" x="398.487273" xlink:href="#md35949129a" y="295.488"/>
    </g>
   </g>
   <g id="PathCollection_6">
    <defs>
     <path d="M -5 5 
L 5 5 
L 5 -5 
L -5 -5 
z
" id="m09b368fd68" style="stroke:#000000;"/>
    </defs>
    <g clip-path="url(#pfdf9e2c53a)">
     <use style="fill:#ff0000;stroke:#000000;" x="92.86197" xlink:href="#m09b368fd68" y="143.400519"/>
    </g>
   </g>
   <g id="matplotlib.axis_1">
    <g id="xtick_1">
     <g id="line2d_1">
      <defs>
       <path d="M 0 0 
L 0 3.5 
" id="ma04c0e5132" style="stroke:#000000;stroke-width:0.8;"/>
      </defs>
      <g>
       <use style="stroke:#000000;stroke-width:0.8;" x="70.553388" xlink:href="#ma04c0e5132" y="307.584"/>
      </g>
     </g>
     <g id="text_1">
      <!-- 0.0 -->
      <g transform="translate(59.421201 325.221812)scale(0.14 -0.14)">
       <defs>
        <path d="M 31.78125 66.40625 
Q 24.171875 66.40625 20.328125 58.90625 
Q 16.5 51.421875 16.5 36.375 
Q 16.5 21.390625 20.328125 13.890625 
Q 24.171875 6.390625 31.78125 6.390625 
Q 39.453125 6.390625 43.28125 13.890625 
Q 47.125 21.390625 47.125 36.375 
Q 47.125 51.421875 43.28125 58.90625 
Q 39.453125 66.40625 31.78125 66.40625 
z
M 31.78125 74.21875 
Q 44.046875 74.21875 50.515625 64.515625 
Q 56.984375 54.828125 56.984375 36.375 
Q 56.984375 17.96875 50.515625 8.265625 
Q 44.046875 -1.421875 31.78125 -1.421875 
Q 19.53125 -1.421875 13.0625 8.265625 
Q 6.59375 17.96875 6.59375 36.375 
Q 6.59375 54.828125 13.0625 64.515625 
Q 19.53125 74.21875 31.78125 74.21875 
z
" id="DejaVuSans-48"/>
        <path d="M 10.6875 12.40625 
L 21 12.40625 
L 21 0 
L 10.6875 0 
z
" id="DejaVuSans-46"/>
       </defs>
       <use xlink:href="#DejaVuSans-48"/>
       <use x="63.623047" xlink:href="#DejaVuSans-46"/>
       <use x="95.410156" xlink:href="#DejaVuSans-48"/>
      </g>
     </g>
    </g>
    <g id="xtick_2">
     <g id="line2d_2">
      <g>
       <use style="stroke:#000000;stroke-width:0.8;" x="136.140165" xlink:href="#ma04c0e5132" y="307.584"/>
      </g>
     </g>
     <g id="text_2">
      <!-- 0.2 -->
      <g transform="translate(125.007978 325.221812)scale(0.14 -0.14)">
       <defs>
        <path d="M 19.1875 8.296875 
L 53.609375 8.296875 
L 53.609375 0 
L 7.328125 0 
L 7.328125 8.296875 
Q 12.9375 14.109375 22.625 23.890625 
Q 32.328125 33.6875 34.8125 36.53125 
Q 39.546875 41.84375 41.421875 45.53125 
Q 43.3125 49.21875 43.3125 52.78125 
Q 43.3125 58.59375 39.234375 62.25 
Q 35.15625 65.921875 28.609375 65.921875 
Q 23.96875 65.921875 18.8125 64.3125 
Q 13.671875 62.703125 7.8125 59.421875 
L 7.8125 69.390625 
Q 13.765625 71.78125 18.9375 73 
Q 24.125 74.21875 28.421875 74.21875 
Q 39.75 74.21875 46.484375 68.546875 
Q 53.21875 62.890625 53.21875 53.421875 
Q 53.21875 48.921875 51.53125 44.890625 
Q 49.859375 40.875 45.40625 35.40625 
Q 44.1875 33.984375 37.640625 27.21875 
Q 31.109375 20.453125 19.1875 8.296875 
z
" id="DejaVuSans-50"/>
       </defs>
       <use xlink:href="#DejaVuSans-48"/>
       <use x="63.623047" xlink:href="#DejaVuSans-46"/>
       <use x="95.410156" xlink:href="#DejaVuSans-50"/>
      </g>
     </g>
    </g>
    <g id="xtick_3">
     <g id="line2d_3">
      <g>
       <use style="stroke:#000000;stroke-width:0.8;" x="201.726942" xlink:href="#ma04c0e5132" y="307.584"/>
      </g>
     </g>
     <g id="text_3">
      <!-- 0.4 -->
      <g transform="translate(190.594755 325.221812)scale(0.14 -0.14)">
       <defs>
        <path d="M 37.796875 64.3125 
L 12.890625 25.390625 
L 37.796875 25.390625 
z
M 35.203125 72.90625 
L 47.609375 72.90625 
L 47.609375 25.390625 
L 58.015625 25.390625 
L 58.015625 17.1875 
L 47.609375 17.1875 
L 47.609375 0 
L 37.796875 0 
L 37.796875 17.1875 
L 4.890625 17.1875 
L 4.890625 26.703125 
z
" id="DejaVuSans-52"/>
       </defs>
       <use xlink:href="#DejaVuSans-48"/>
       <use x="63.623047" xlink:href="#DejaVuSans-46"/>
       <use x="95.410156" xlink:href="#DejaVuSans-52"/>
      </g>
     </g>
    </g>
    <g id="xtick_4">
     <g id="line2d_4">
      <g>
       <use style="stroke:#000000;stroke-width:0.8;" x="267.313719" xlink:href="#ma04c0e5132" y="307.584"/>
      </g>
     </g>
     <g id="text_4">
      <!-- 0.6 -->
      <g transform="translate(256.181532 325.221812)scale(0.14 -0.14)">
       <defs>
        <path d="M 33.015625 40.375 
Q 26.375 40.375 22.484375 35.828125 
Q 18.609375 31.296875 18.609375 23.390625 
Q 18.609375 15.53125 22.484375 10.953125 
Q 26.375 6.390625 33.015625 6.390625 
Q 39.65625 6.390625 43.53125 10.953125 
Q 47.40625 15.53125 47.40625 23.390625 
Q 47.40625 31.296875 43.53125 35.828125 
Q 39.65625 40.375 33.015625 40.375 
z
M 52.59375 71.296875 
L 52.59375 62.3125 
Q 48.875 64.0625 45.09375 64.984375 
Q 41.3125 65.921875 37.59375 65.921875 
Q 27.828125 65.921875 22.671875 59.328125 
Q 17.53125 52.734375 16.796875 39.40625 
Q 19.671875 43.65625 24.015625 45.921875 
Q 28.375 48.1875 33.59375 48.1875 
Q 44.578125 48.1875 50.953125 41.515625 
Q 57.328125 34.859375 57.328125 23.390625 
Q 57.328125 12.15625 50.6875 5.359375 
Q 44.046875 -1.421875 33.015625 -1.421875 
Q 20.359375 -1.421875 13.671875 8.265625 
Q 6.984375 17.96875 6.984375 36.375 
Q 6.984375 53.65625 15.1875 63.9375 
Q 23.390625 74.21875 37.203125 74.21875 
Q 40.921875 74.21875 44.703125 73.484375 
Q 48.484375 72.75 52.59375 71.296875 
z
" id="DejaVuSans-54"/>
       </defs>
       <use xlink:href="#DejaVuSans-48"/>
       <use x="63.623047" xlink:href="#DejaVuSans-46"/>
       <use x="95.410156" xlink:href="#DejaVuSans-54"/>
      </g>
     </g>
    </g>
    <g id="xtick_5">
     <g id="line2d_5">
      <g>
       <use style="stroke:#000000;stroke-width:0.8;" x="332.900496" xlink:href="#ma04c0e5132" y="307.584"/>
      </g>
     </g>
     <g id="text_5">
      <!-- 0.8 -->
      <g transform="translate(321.768308 325.221812)scale(0.14 -0.14)">
       <defs>
        <path d="M 31.78125 34.625 
Q 24.75 34.625 20.71875 30.859375 
Q 16.703125 27.09375 16.703125 20.515625 
Q 16.703125 13.921875 20.71875 10.15625 
Q 24.75 6.390625 31.78125 6.390625 
Q 38.8125 6.390625 42.859375 10.171875 
Q 46.921875 13.96875 46.921875 20.515625 
Q 46.921875 27.09375 42.890625 30.859375 
Q 38.875 34.625 31.78125 34.625 
z
M 21.921875 38.8125 
Q 15.578125 40.375 12.03125 44.71875 
Q 8.5 49.078125 8.5 55.328125 
Q 8.5 64.0625 14.71875 69.140625 
Q 20.953125 74.21875 31.78125 74.21875 
Q 42.671875 74.21875 48.875 69.140625 
Q 55.078125 64.0625 55.078125 55.328125 
Q 55.078125 49.078125 51.53125 44.71875 
Q 48 40.375 41.703125 38.8125 
Q 48.828125 37.15625 52.796875 32.3125 
Q 56.78125 27.484375 56.78125 20.515625 
Q 56.78125 9.90625 50.3125 4.234375 
Q 43.84375 -1.421875 31.78125 -1.421875 
Q 19.734375 -1.421875 13.25 4.234375 
Q 6.78125 9.90625 6.78125 20.515625 
Q 6.78125 27.484375 10.78125 32.3125 
Q 14.796875 37.15625 21.921875 38.8125 
z
M 18.3125 54.390625 
Q 18.3125 48.734375 21.84375 45.5625 
Q 25.390625 42.390625 31.78125 42.390625 
Q 38.140625 42.390625 41.71875 45.5625 
Q 45.3125 48.734375 45.3125 54.390625 
Q 45.3125 60.0625 41.71875 63.234375 
Q 38.140625 66.40625 31.78125 66.40625 
Q 25.390625 66.40625 21.84375 63.234375 
Q 18.3125 60.0625 18.3125 54.390625 
z
" id="DejaVuSans-56"/>
       </defs>
       <use xlink:href="#DejaVuSans-48"/>
       <use x="63.623047" xlink:href="#DejaVuSans-46"/>
       <use x="95.410156" xlink:href="#DejaVuSans-56"/>
      </g>
     </g>
    </g>
    <g id="xtick_6">
     <g id="line2d_6">
      <g>
       <use style="stroke:#000000;stroke-width:0.8;" x="398.487273" xlink:href="#ma04c0e5132" y="307.584"/>
      </g>
     </g>
     <g id="text_6">
      <!-- 1.0 -->
      <g transform="translate(387.355085 325.221812)scale(0.14 -0.14)">
       <defs>
        <path d="M 12.40625 8.296875 
L 28.515625 8.296875 
L 28.515625 63.921875 
L 10.984375 60.40625 
L 10.984375 69.390625 
L 28.421875 72.90625 
L 38.28125 72.90625 
L 38.28125 8.296875 
L 54.390625 8.296875 
L 54.390625 0 
L 12.40625 0 
z
" id="DejaVuSans-49"/>
       </defs>
       <use xlink:href="#DejaVuSans-49"/>
       <use x="63.623047" xlink:href="#DejaVuSans-46"/>
       <use x="95.410156" xlink:href="#DejaVuSans-48"/>
      </g>
     </g>
    </g>
    <g id="text_7">
     <!-- $b$ -->
     <g transform="translate(230.4 345.810562)scale(0.18 -0.18)">
      <defs>
       <path d="M 49.515625 33.40625 
Q 49.515625 40.484375 46.265625 44.484375 
Q 43.015625 48.484375 37.3125 48.484375 
Q 33.15625 48.484375 29.515625 46.453125 
Q 25.875 44.4375 23.1875 40.578125 
Q 20.359375 36.53125 18.71875 31.171875 
Q 17.09375 25.828125 17.09375 20.515625 
Q 17.09375 13.765625 20.28125 9.9375 
Q 23.484375 6.109375 29.109375 6.109375 
Q 33.34375 6.109375 36.953125 8.078125 
Q 40.578125 10.0625 43.3125 13.921875 
Q 46.09375 17.921875 47.796875 23.234375 
Q 49.515625 28.5625 49.515625 33.40625 
z
M 21.578125 46.390625 
Q 24.90625 50.875 29.90625 53.4375 
Q 34.90625 56 40.375 56 
Q 48.78125 56 53.734375 50.328125 
Q 58.6875 44.671875 58.6875 35.015625 
Q 58.6875 27.09375 55.78125 19.671875 
Q 52.875 12.25 47.515625 6.5 
Q 44 2.6875 39.40625 0.625 
Q 34.8125 -1.421875 29.78125 -1.421875 
Q 24.46875 -1.421875 20.5625 1.015625 
Q 16.65625 3.46875 14.203125 8.296875 
L 12.59375 0 
L 3.609375 0 
L 18.40625 75.984375 
L 27.390625 75.984375 
z
" id="DejaVuSans-Oblique-98"/>
      </defs>
      <use transform="translate(0 0.015625)" xlink:href="#DejaVuSans-Oblique-98"/>
     </g>
    </g>
   </g>
   <g id="matplotlib.axis_2">
    <g id="ytick_1">
     <g id="line2d_7">
      <defs>
       <path d="M 0 0 
L -3.5 0 
" id="mf65120043b" style="stroke:#000000;stroke-width:0.8;"/>
      </defs>
      <g>
       <use style="stroke:#000000;stroke-width:0.8;" x="57.6" xlink:href="#mf65120043b" y="296.020065"/>
      </g>
     </g>
     <g id="text_8">
      <!-- 0.0 -->
      <g transform="translate(28.335625 301.338971)scale(0.14 -0.14)">
       <use xlink:href="#DejaVuSans-48"/>
       <use x="63.623047" xlink:href="#DejaVuSans-46"/>
       <use x="95.410156" xlink:href="#DejaVuSans-48"/>
      </g>
     </g>
    </g>
    <g id="ytick_2">
     <g id="line2d_8">
      <g>
       <use style="stroke:#000000;stroke-width:0.8;" x="57.6" xlink:href="#mf65120043b" y="259.246076"/>
      </g>
     </g>
     <g id="text_9">
      <!-- 0.2 -->
      <g transform="translate(28.335625 264.564982)scale(0.14 -0.14)">
       <use xlink:href="#DejaVuSans-48"/>
       <use x="63.623047" xlink:href="#DejaVuSans-46"/>
       <use x="95.410156" xlink:href="#DejaVuSans-50"/>
      </g>
     </g>
    </g>
    <g id="ytick_3">
     <g id="line2d_9">
      <g>
       <use style="stroke:#000000;stroke-width:0.8;" x="57.6" xlink:href="#mf65120043b" y="222.472087"/>
      </g>
     </g>
     <g id="text_10">
      <!-- 0.4 -->
      <g transform="translate(28.335625 227.790994)scale(0.14 -0.14)">
       <use xlink:href="#DejaVuSans-48"/>
       <use x="63.623047" xlink:href="#DejaVuSans-46"/>
       <use x="95.410156" xlink:href="#DejaVuSans-52"/>
      </g>
     </g>
    </g>
    <g id="ytick_4">
     <g id="line2d_10">
      <g>
       <use style="stroke:#000000;stroke-width:0.8;" x="57.6" xlink:href="#mf65120043b" y="185.698099"/>
      </g>
     </g>
     <g id="text_11">
      <!-- 0.6 -->
      <g transform="translate(28.335625 191.017005)scale(0.14 -0.14)">
       <use xlink:href="#DejaVuSans-48"/>
       <use x="63.623047" xlink:href="#DejaVuSans-46"/>
       <use x="95.410156" xlink:href="#DejaVuSans-54"/>
      </g>
     </g>
    </g>
    <g id="ytick_5">
     <g id="line2d_11">
      <g>
       <use style="stroke:#000000;stroke-width:0.8;" x="57.6" xlink:href="#mf65120043b" y="148.92411"/>
      </g>
     </g>
     <g id="text_12">
      <!-- 0.8 -->
      <g transform="translate(28.335625 154.243016)scale(0.14 -0.14)">
       <use xlink:href="#DejaVuSans-48"/>
       <use x="63.623047" xlink:href="#DejaVuSans-46"/>
       <use x="95.410156" xlink:href="#DejaVuSans-56"/>
      </g>
     </g>
    </g>
    <g id="ytick_6">
     <g id="line2d_12">
      <g>
       <use style="stroke:#000000;stroke-width:0.8;" x="57.6" xlink:href="#mf65120043b" y="112.150121"/>
      </g>
     </g>
     <g id="text_13">
      <!-- 1.0 -->
      <g transform="translate(28.335625 117.469028)scale(0.14 -0.14)">
       <use xlink:href="#DejaVuSans-49"/>
       <use x="63.623047" xlink:href="#DejaVuSans-46"/>
       <use x="95.410156" xlink:href="#DejaVuSans-48"/>
      </g>
     </g>
    </g>
    <g id="ytick_7">
     <g id="line2d_13">
      <g>
       <use style="stroke:#000000;stroke-width:0.8;" x="57.6" xlink:href="#mf65120043b" y="75.376133"/>
      </g>
     </g>
     <g id="text_14">
      <!-- 1.2 -->
      <g transform="translate(28.335625 80.695039)scale(0.14 -0.14)">
       <use xlink:href="#DejaVuSans-49"/>
       <use x="63.623047" xlink:href="#DejaVuSans-46"/>
       <use x="95.410156" xlink:href="#DejaVuSans-50"/>
      </g>
     </g>
    </g>
    <g id="text_15">
     <!-- $x$ -->
     <g transform="translate(20.592188 179.928)rotate(-90)scale(0.18 -0.18)">
      <defs>
       <path d="M 60.015625 54.6875 
L 34.90625 27.875 
L 50.296875 0 
L 39.984375 0 
L 28.421875 21.6875 
L 8.296875 0 
L -2.59375 0 
L 24.3125 28.8125 
L 10.015625 54.6875 
L 20.3125 54.6875 
L 30.8125 34.90625 
L 49.125 54.6875 
z
" id="DejaVuSans-Oblique-120"/>
      </defs>
      <use transform="translate(0 0.3125)" xlink:href="#DejaVuSans-Oblique-120"/>
     </g>
    </g>
   </g>
   <g id="line2d_14">
    <path clip-path="url(#pfdf9e2c53a)" d="M 234.520331 54.014541 
L 218.081573 54.398873 
L 197.661988 55.141749 
L 177.482008 56.278868 
L 157.740175 57.94408 
L 138.868749 60.233139 
L 121.931899 62.84174 
L 108.190796 67.255841 
L 95.770203 86.70619 
L 91.786195 108.497729 
L 92.86197 143.400519 
L 99.708166 157.644167 
L 108.717007 164.123009 
L 125.022837 174.701869 
L 138.556916 181.061171 
L 158.692178 185.749139 
L 172.985724 183.920075 
L 193.67928 176.774519 
L 209.503065 172.076216 
L 232.807151 166.60744 
L 249.849464 163.243394 
L 274.280845 158.942567 
L 291.826199 156.092371 
L 316.771107 152.254796 
L 334.579445 149.620623 
L 359.826559 145.989171 
L 377.811624 143.457797 
L 390.532117 141.690159 
L 398.487273 140.593382 
" style="fill:none;stroke:#0000ff;stroke-linecap:square;stroke-width:1.5;"/>
   </g>
   <g id="line2d_15">
    <path clip-path="url(#pfdf9e2c53a)" d="M 234.520331 54.014541 
L 251.016561 53.769885 
L 271.688091 53.610354 
L 292.397716 53.568 
L 313.12871 53.60681 
L 333.874309 53.700641 
L 354.626755 53.830592 
L 375.384837 53.983106 
L 396.144315 54.148481 
L 398.487273 54.167628 
" style="fill:none;stroke:#0000ff;stroke-linecap:square;stroke-width:1.5;"/>
   </g>
   <g id="line2d_16">
    <path clip-path="url(#pfdf9e2c53a)" d="M 234.520331 294.925409 
L 222.125745 294.860134 
L 206.74682 294.769138 
L 191.559893 294.663768 
L 176.649628 294.538047 
L 162.129526 294.382974 
L 148.169937 294.183879 
L 135.040472 293.917587 
L 123.190483 293.557728 
L 113.112393 293.091298 
L 102.829114 292.331025 
L 93.838875 291.048366 
L 87.096584 289.033371 
L 78.652025 291.549644 
L 73.832727 294.182687 
" style="fill:none;stroke:#0000ff;stroke-linecap:square;stroke-width:1.5;"/>
   </g>
   <g id="line2d_17">
    <path clip-path="url(#pfdf9e2c53a)" d="M 234.520331 294.925409 
L 246.964236 294.985626 
L 262.552966 295.055289 
L 278.148167 295.119825 
L 293.726565 295.179889 
L 309.274711 295.235832 
L 324.785083 295.287859 
L 340.25533 295.336132 
L 355.685232 295.380815 
L 371.07692 295.422094 
L 386.432706 295.460167 
L 398.487273 295.488 
" style="fill:none;stroke:#0000ff;stroke-linecap:square;stroke-width:1.5;"/>
   </g>
   <g id="patch_3">
    <path d="M 57.6 307.584 
L 57.6 41.472 
" style="fill:none;stroke:#000000;stroke-linecap:square;stroke-linejoin:miter;stroke-width:0.8;"/>
   </g>
   <g id="patch_4">
    <path d="M 414.72 307.584 
L 414.72 41.472 
" style="fill:none;stroke:#000000;stroke-linecap:square;stroke-linejoin:miter;stroke-width:0.8;"/>
   </g>
   <g id="patch_5">
    <path d="M 57.6 307.584 
L 414.72 307.584 
" style="fill:none;stroke:#000000;stroke-linecap:square;stroke-linejoin:miter;stroke-width:0.8;"/>
   </g>
   <g id="patch_6">
    <path d="M 57.6 41.472 
L 414.72 41.472 
" style="fill:none;stroke:#000000;stroke-linecap:square;stroke-linejoin:miter;stroke-width:0.8;"/>
   </g>
   <g id="text_16">
    <!-- NANOG -->
    <g transform="translate(202.478906 35.472)scale(0.18 -0.18)">
     <defs>
      <path d="M 9.8125 72.90625 
L 23.09375 72.90625 
L 55.421875 11.921875 
L 55.421875 72.90625 
L 64.984375 72.90625 
L 64.984375 0 
L 51.703125 0 
L 19.390625 60.984375 
L 19.390625 0 
L 9.8125 0 
z
" id="DejaVuSans-78"/>
      <path d="M 34.1875 63.1875 
L 20.796875 26.90625 
L 47.609375 26.90625 
z
M 28.609375 72.90625 
L 39.796875 72.90625 
L 67.578125 0 
L 57.328125 0 
L 50.6875 18.703125 
L 17.828125 18.703125 
L 11.1875 0 
L 0.78125 0 
z
" id="DejaVuSans-65"/>
      <path d="M 39.40625 66.21875 
Q 28.65625 66.21875 22.328125 58.203125 
Q 16.015625 50.203125 16.015625 36.375 
Q 16.015625 22.609375 22.328125 14.59375 
Q 28.65625 6.59375 39.40625 6.59375 
Q 50.140625 6.59375 56.421875 14.59375 
Q 62.703125 22.609375 62.703125 36.375 
Q 62.703125 50.203125 56.421875 58.203125 
Q 50.140625 66.21875 39.40625 66.21875 
z
M 39.40625 74.21875 
Q 54.734375 74.21875 63.90625 63.9375 
Q 73.09375 53.65625 73.09375 36.375 
Q 73.09375 19.140625 63.90625 8.859375 
Q 54.734375 -1.421875 39.40625 -1.421875 
Q 24.03125 -1.421875 14.8125 8.828125 
Q 5.609375 19.09375 5.609375 36.375 
Q 5.609375 53.65625 14.8125 63.9375 
Q 24.03125 74.21875 39.40625 74.21875 
z
" id="DejaVuSans-79"/>
      <path d="M 59.515625 10.40625 
L 59.515625 29.984375 
L 43.40625 29.984375 
L 43.40625 38.09375 
L 69.28125 38.09375 
L 69.28125 6.78125 
Q 63.578125 2.734375 56.6875 0.65625 
Q 49.8125 -1.421875 42 -1.421875 
Q 24.90625 -1.421875 15.25 8.5625 
Q 5.609375 18.5625 5.609375 36.375 
Q 5.609375 54.25 15.25 64.234375 
Q 24.90625 74.21875 42 74.21875 
Q 49.125 74.21875 55.546875 72.453125 
Q 61.96875 70.703125 67.390625 67.28125 
L 67.390625 56.78125 
Q 61.921875 61.421875 55.765625 63.765625 
Q 49.609375 66.109375 42.828125 66.109375 
Q 29.4375 66.109375 22.71875 58.640625 
Q 16.015625 51.171875 16.015625 36.375 
Q 16.015625 21.625 22.71875 14.15625 
Q 29.4375 6.6875 42.828125 6.6875 
Q 48.046875 6.6875 52.140625 7.59375 
Q 56.25 8.5 59.515625 10.40625 
z
" id="DejaVuSans-71"/>
     </defs>
     <use xlink:href="#DejaVuSans-78"/>
     <use x="74.804688" xlink:href="#DejaVuSans-65"/>
     <use x="143.212891" xlink:href="#DejaVuSans-78"/>
     <use x="218.017578" xlink:href="#DejaVuSans-79"/>
     <use x="296.728516" xlink:href="#DejaVuSans-71"/>
    </g>
   </g>
   <g id="legend_1">
    <g id="patch_7">
     <path d="M 274.21875 202.748625 
L 406.32 202.748625 
Q 408.72 202.748625 408.72 200.348625 
L 408.72 148.707375 
Q 408.72 146.307375 406.32 146.307375 
L 274.21875 146.307375 
Q 271.81875 146.307375 271.81875 148.707375 
L 271.81875 200.348625 
Q 271.81875 202.748625 274.21875 202.748625 
z
" style="fill:#ffffff;opacity:0.8;stroke:#cccccc;stroke-linejoin:miter;"/>
    </g>
    <g id="patch_8">
     <path d="M 276.61875 160.2255 
L 300.61875 160.2255 
L 300.61875 151.8255 
L 276.61875 151.8255 
z
" style="fill:#ff0000;stroke:#000000;stroke-linejoin:miter;"/>
    </g>
    <g id="text_17">
     <!-- Fold point -->
     <g transform="translate(310.21875 160.2255)scale(0.12 -0.12)">
      <defs>
       <path d="M 9.8125 72.90625 
L 51.703125 72.90625 
L 51.703125 64.59375 
L 19.671875 64.59375 
L 19.671875 43.109375 
L 48.578125 43.109375 
L 48.578125 34.8125 
L 19.671875 34.8125 
L 19.671875 0 
L 9.8125 0 
z
" id="DejaVuSans-70"/>
       <path d="M 30.609375 48.390625 
Q 23.390625 48.390625 19.1875 42.75 
Q 14.984375 37.109375 14.984375 27.296875 
Q 14.984375 17.484375 19.15625 11.84375 
Q 23.34375 6.203125 30.609375 6.203125 
Q 37.796875 6.203125 41.984375 11.859375 
Q 46.1875 17.53125 46.1875 27.296875 
Q 46.1875 37.015625 41.984375 42.703125 
Q 37.796875 48.390625 30.609375 48.390625 
z
M 30.609375 56 
Q 42.328125 56 49.015625 48.375 
Q 55.71875 40.765625 55.71875 27.296875 
Q 55.71875 13.875 49.015625 6.21875 
Q 42.328125 -1.421875 30.609375 -1.421875 
Q 18.84375 -1.421875 12.171875 6.21875 
Q 5.515625 13.875 5.515625 27.296875 
Q 5.515625 40.765625 12.171875 48.375 
Q 18.84375 56 30.609375 56 
z
" id="DejaVuSans-111"/>
       <path d="M 9.421875 75.984375 
L 18.40625 75.984375 
L 18.40625 0 
L 9.421875 0 
z
" id="DejaVuSans-108"/>
       <path d="M 45.40625 46.390625 
L 45.40625 75.984375 
L 54.390625 75.984375 
L 54.390625 0 
L 45.40625 0 
L 45.40625 8.203125 
Q 42.578125 3.328125 38.25 0.953125 
Q 33.9375 -1.421875 27.875 -1.421875 
Q 17.96875 -1.421875 11.734375 6.484375 
Q 5.515625 14.40625 5.515625 27.296875 
Q 5.515625 40.1875 11.734375 48.09375 
Q 17.96875 56 27.875 56 
Q 33.9375 56 38.25 53.625 
Q 42.578125 51.265625 45.40625 46.390625 
z
M 14.796875 27.296875 
Q 14.796875 17.390625 18.875 11.75 
Q 22.953125 6.109375 30.078125 6.109375 
Q 37.203125 6.109375 41.296875 11.75 
Q 45.40625 17.390625 45.40625 27.296875 
Q 45.40625 37.203125 41.296875 42.84375 
Q 37.203125 48.484375 30.078125 48.484375 
Q 22.953125 48.484375 18.875 42.84375 
Q 14.796875 37.203125 14.796875 27.296875 
z
" id="DejaVuSans-100"/>
       <path id="DejaVuSans-32"/>
       <path d="M 18.109375 8.203125 
L 18.109375 -20.796875 
L 9.078125 -20.796875 
L 9.078125 54.6875 
L 18.109375 54.6875 
L 18.109375 46.390625 
Q 20.953125 51.265625 25.265625 53.625 
Q 29.59375 56 35.59375 56 
Q 45.5625 56 51.78125 48.09375 
Q 58.015625 40.1875 58.015625 27.296875 
Q 58.015625 14.40625 51.78125 6.484375 
Q 45.5625 -1.421875 35.59375 -1.421875 
Q 29.59375 -1.421875 25.265625 0.953125 
Q 20.953125 3.328125 18.109375 8.203125 
z
M 48.6875 27.296875 
Q 48.6875 37.203125 44.609375 42.84375 
Q 40.53125 48.484375 33.40625 48.484375 
Q 26.265625 48.484375 22.1875 42.84375 
Q 18.109375 37.203125 18.109375 27.296875 
Q 18.109375 17.390625 22.1875 11.75 
Q 26.265625 6.109375 33.40625 6.109375 
Q 40.53125 6.109375 44.609375 11.75 
Q 48.6875 17.390625 48.6875 27.296875 
z
" id="DejaVuSans-112"/>
       <path d="M 9.421875 54.6875 
L 18.40625 54.6875 
L 18.40625 0 
L 9.421875 0 
z
M 9.421875 75.984375 
L 18.40625 75.984375 
L 18.40625 64.59375 
L 9.421875 64.59375 
z
" id="DejaVuSans-105"/>
       <path d="M 54.890625 33.015625 
L 54.890625 0 
L 45.90625 0 
L 45.90625 32.71875 
Q 45.90625 40.484375 42.875 44.328125 
Q 39.84375 48.1875 33.796875 48.1875 
Q 26.515625 48.1875 22.3125 43.546875 
Q 18.109375 38.921875 18.109375 30.90625 
L 18.109375 0 
L 9.078125 0 
L 9.078125 54.6875 
L 18.109375 54.6875 
L 18.109375 46.1875 
Q 21.34375 51.125 25.703125 53.5625 
Q 30.078125 56 35.796875 56 
Q 45.21875 56 50.046875 50.171875 
Q 54.890625 44.34375 54.890625 33.015625 
z
" id="DejaVuSans-110"/>
       <path d="M 18.3125 70.21875 
L 18.3125 54.6875 
L 36.8125 54.6875 
L 36.8125 47.703125 
L 18.3125 47.703125 
L 18.3125 18.015625 
Q 18.3125 11.328125 20.140625 9.421875 
Q 21.96875 7.515625 27.59375 7.515625 
L 36.8125 7.515625 
L 36.8125 0 
L 27.59375 0 
Q 17.1875 0 13.234375 3.875 
Q 9.28125 7.765625 9.28125 18.015625 
L 9.28125 47.703125 
L 2.6875 47.703125 
L 2.6875 54.6875 
L 9.28125 54.6875 
L 9.28125 70.21875 
z
" id="DejaVuSans-116"/>
      </defs>
      <use xlink:href="#DejaVuSans-70"/>
      <use x="53.894531" xlink:href="#DejaVuSans-111"/>
      <use x="115.076172" xlink:href="#DejaVuSans-108"/>
      <use x="142.859375" xlink:href="#DejaVuSans-100"/>
      <use x="206.335938" xlink:href="#DejaVuSans-32"/>
      <use x="238.123047" xlink:href="#DejaVuSans-112"/>
      <use x="301.599609" xlink:href="#DejaVuSans-111"/>
      <use x="362.78125" xlink:href="#DejaVuSans-105"/>
      <use x="390.564453" xlink:href="#DejaVuSans-110"/>
      <use x="453.943359" xlink:href="#DejaVuSans-116"/>
     </g>
    </g>
    <g id="patch_9">
     <path d="M 276.61875 177.83925 
L 300.61875 177.83925 
L 300.61875 169.43925 
L 276.61875 169.43925 
z
" style="fill:none;stroke:#1e90ff;stroke-linejoin:miter;"/>
    </g>
    <g id="text_18">
     <!-- Unstable points -->
     <g transform="translate(310.21875 177.83925)scale(0.12 -0.12)">
      <defs>
       <path d="M 8.6875 72.90625 
L 18.609375 72.90625 
L 18.609375 28.609375 
Q 18.609375 16.890625 22.84375 11.734375 
Q 27.09375 6.59375 36.625 6.59375 
Q 46.09375 6.59375 50.34375 11.734375 
Q 54.59375 16.890625 54.59375 28.609375 
L 54.59375 72.90625 
L 64.5 72.90625 
L 64.5 27.390625 
Q 64.5 13.140625 57.4375 5.859375 
Q 50.390625 -1.421875 36.625 -1.421875 
Q 22.796875 -1.421875 15.734375 5.859375 
Q 8.6875 13.140625 8.6875 27.390625 
z
" id="DejaVuSans-85"/>
       <path d="M 44.28125 53.078125 
L 44.28125 44.578125 
Q 40.484375 46.53125 36.375 47.5 
Q 32.28125 48.484375 27.875 48.484375 
Q 21.1875 48.484375 17.84375 46.4375 
Q 14.5 44.390625 14.5 40.28125 
Q 14.5 37.15625 16.890625 35.375 
Q 19.28125 33.59375 26.515625 31.984375 
L 29.59375 31.296875 
Q 39.15625 29.25 43.1875 25.515625 
Q 47.21875 21.78125 47.21875 15.09375 
Q 47.21875 7.46875 41.1875 3.015625 
Q 35.15625 -1.421875 24.609375 -1.421875 
Q 20.21875 -1.421875 15.453125 -0.5625 
Q 10.6875 0.296875 5.421875 2 
L 5.421875 11.28125 
Q 10.40625 8.6875 15.234375 7.390625 
Q 20.0625 6.109375 24.8125 6.109375 
Q 31.15625 6.109375 34.5625 8.28125 
Q 37.984375 10.453125 37.984375 14.40625 
Q 37.984375 18.0625 35.515625 20.015625 
Q 33.0625 21.96875 24.703125 23.78125 
L 21.578125 24.515625 
Q 13.234375 26.265625 9.515625 29.90625 
Q 5.8125 33.546875 5.8125 39.890625 
Q 5.8125 47.609375 11.28125 51.796875 
Q 16.75 56 26.8125 56 
Q 31.78125 56 36.171875 55.265625 
Q 40.578125 54.546875 44.28125 53.078125 
z
" id="DejaVuSans-115"/>
       <path d="M 34.28125 27.484375 
Q 23.390625 27.484375 19.1875 25 
Q 14.984375 22.515625 14.984375 16.5 
Q 14.984375 11.71875 18.140625 8.90625 
Q 21.296875 6.109375 26.703125 6.109375 
Q 34.1875 6.109375 38.703125 11.40625 
Q 43.21875 16.703125 43.21875 25.484375 
L 43.21875 27.484375 
z
M 52.203125 31.203125 
L 52.203125 0 
L 43.21875 0 
L 43.21875 8.296875 
Q 40.140625 3.328125 35.546875 0.953125 
Q 30.953125 -1.421875 24.3125 -1.421875 
Q 15.921875 -1.421875 10.953125 3.296875 
Q 6 8.015625 6 15.921875 
Q 6 25.140625 12.171875 29.828125 
Q 18.359375 34.515625 30.609375 34.515625 
L 43.21875 34.515625 
L 43.21875 35.40625 
Q 43.21875 41.609375 39.140625 45 
Q 35.0625 48.390625 27.6875 48.390625 
Q 23 48.390625 18.546875 47.265625 
Q 14.109375 46.140625 10.015625 43.890625 
L 10.015625 52.203125 
Q 14.9375 54.109375 19.578125 55.046875 
Q 24.21875 56 28.609375 56 
Q 40.484375 56 46.34375 49.84375 
Q 52.203125 43.703125 52.203125 31.203125 
z
" id="DejaVuSans-97"/>
       <path d="M 48.6875 27.296875 
Q 48.6875 37.203125 44.609375 42.84375 
Q 40.53125 48.484375 33.40625 48.484375 
Q 26.265625 48.484375 22.1875 42.84375 
Q 18.109375 37.203125 18.109375 27.296875 
Q 18.109375 17.390625 22.1875 11.75 
Q 26.265625 6.109375 33.40625 6.109375 
Q 40.53125 6.109375 44.609375 11.75 
Q 48.6875 17.390625 48.6875 27.296875 
z
M 18.109375 46.390625 
Q 20.953125 51.265625 25.265625 53.625 
Q 29.59375 56 35.59375 56 
Q 45.5625 56 51.78125 48.09375 
Q 58.015625 40.1875 58.015625 27.296875 
Q 58.015625 14.40625 51.78125 6.484375 
Q 45.5625 -1.421875 35.59375 -1.421875 
Q 29.59375 -1.421875 25.265625 0.953125 
Q 20.953125 3.328125 18.109375 8.203125 
L 18.109375 0 
L 9.078125 0 
L 9.078125 75.984375 
L 18.109375 75.984375 
z
" id="DejaVuSans-98"/>
       <path d="M 56.203125 29.59375 
L 56.203125 25.203125 
L 14.890625 25.203125 
Q 15.484375 15.921875 20.484375 11.0625 
Q 25.484375 6.203125 34.421875 6.203125 
Q 39.59375 6.203125 44.453125 7.46875 
Q 49.3125 8.734375 54.109375 11.28125 
L 54.109375 2.78125 
Q 49.265625 0.734375 44.1875 -0.34375 
Q 39.109375 -1.421875 33.890625 -1.421875 
Q 20.796875 -1.421875 13.15625 6.1875 
Q 5.515625 13.8125 5.515625 26.8125 
Q 5.515625 40.234375 12.765625 48.109375 
Q 20.015625 56 32.328125 56 
Q 43.359375 56 49.78125 48.890625 
Q 56.203125 41.796875 56.203125 29.59375 
z
M 47.21875 32.234375 
Q 47.125 39.59375 43.09375 43.984375 
Q 39.0625 48.390625 32.421875 48.390625 
Q 24.90625 48.390625 20.390625 44.140625 
Q 15.875 39.890625 15.1875 32.171875 
z
" id="DejaVuSans-101"/>
      </defs>
      <use xlink:href="#DejaVuSans-85"/>
      <use x="73.193359" xlink:href="#DejaVuSans-110"/>
      <use x="136.572266" xlink:href="#DejaVuSans-115"/>
      <use x="188.671875" xlink:href="#DejaVuSans-116"/>
      <use x="227.880859" xlink:href="#DejaVuSans-97"/>
      <use x="289.160156" xlink:href="#DejaVuSans-98"/>
      <use x="352.636719" xlink:href="#DejaVuSans-108"/>
      <use x="380.419922" xlink:href="#DejaVuSans-101"/>
      <use x="441.943359" xlink:href="#DejaVuSans-32"/>
      <use x="473.730469" xlink:href="#DejaVuSans-112"/>
      <use x="537.207031" xlink:href="#DejaVuSans-111"/>
      <use x="598.388672" xlink:href="#DejaVuSans-105"/>
      <use x="626.171875" xlink:href="#DejaVuSans-110"/>
      <use x="689.550781" xlink:href="#DejaVuSans-116"/>
      <use x="728.759766" xlink:href="#DejaVuSans-115"/>
     </g>
    </g>
    <g id="patch_10">
     <path d="M 276.61875 195.453 
L 300.61875 195.453 
L 300.61875 187.053 
L 276.61875 187.053 
z
" style="fill:#1e90ff;stroke:#000000;stroke-linejoin:miter;"/>
    </g>
    <g id="text_19">
     <!-- Stable points -->
     <g transform="translate(310.21875 195.453)scale(0.12 -0.12)">
      <defs>
       <path d="M 53.515625 70.515625 
L 53.515625 60.890625 
Q 47.90625 63.578125 42.921875 64.890625 
Q 37.9375 66.21875 33.296875 66.21875 
Q 25.25 66.21875 20.875 63.09375 
Q 16.5 59.96875 16.5 54.203125 
Q 16.5 49.359375 19.40625 46.890625 
Q 22.3125 44.4375 30.421875 42.921875 
L 36.375 41.703125 
Q 47.40625 39.59375 52.65625 34.296875 
Q 57.90625 29 57.90625 20.125 
Q 57.90625 9.515625 50.796875 4.046875 
Q 43.703125 -1.421875 29.984375 -1.421875 
Q 24.8125 -1.421875 18.96875 -0.25 
Q 13.140625 0.921875 6.890625 3.21875 
L 6.890625 13.375 
Q 12.890625 10.015625 18.65625 8.296875 
Q 24.421875 6.59375 29.984375 6.59375 
Q 38.421875 6.59375 43.015625 9.90625 
Q 47.609375 13.234375 47.609375 19.390625 
Q 47.609375 24.75 44.3125 27.78125 
Q 41.015625 30.8125 33.5 32.328125 
L 27.484375 33.5 
Q 16.453125 35.6875 11.515625 40.375 
Q 6.59375 45.0625 6.59375 53.421875 
Q 6.59375 63.09375 13.40625 68.65625 
Q 20.21875 74.21875 32.171875 74.21875 
Q 37.3125 74.21875 42.625 73.28125 
Q 47.953125 72.359375 53.515625 70.515625 
z
" id="DejaVuSans-83"/>
      </defs>
      <use xlink:href="#DejaVuSans-83"/>
      <use x="63.476562" xlink:href="#DejaVuSans-116"/>
      <use x="102.685547" xlink:href="#DejaVuSans-97"/>
      <use x="163.964844" xlink:href="#DejaVuSans-98"/>
      <use x="227.441406" xlink:href="#DejaVuSans-108"/>
      <use x="255.224609" xlink:href="#DejaVuSans-101"/>
      <use x="316.748047" xlink:href="#DejaVuSans-32"/>
      <use x="348.535156" xlink:href="#DejaVuSans-112"/>
      <use x="412.011719" xlink:href="#DejaVuSans-111"/>
      <use x="473.193359" xlink:href="#DejaVuSans-105"/>
      <use x="500.976562" xlink:href="#DejaVuSans-110"/>
      <use x="564.355469" xlink:href="#DejaVuSans-116"/>
      <use x="603.564453" xlink:href="#DejaVuSans-115"/>
     </g>
    </g>
   </g>
  </g>
 </g>
 <defs>
  <clipPath id="pfdf9e2c53a">
   <rect height="266.112" width="357.12" x="57.6" y="41.472"/>
  </clipPath>
 </defs>
</svg>
